<?xml version="1.0" standalone="no"?>
<!DOCTYPE svg PUBLIC "-//W3C//DTD SVG 1.1//EN" "http://www.w3.org/Graphics/SVG/1.1/DTD/svg11.dtd" >
<svg xmlns="http://www.w3.org/2000/svg">
<metadata>Generated by IcoMoon</metadata>
<defs>
<font id="Sencha-Examples" horiz-adv-x="1024">
<font-face units-per-em="1024" ascent="960" descent="-64" />
<missing-glyph horiz-adv-x="1024" />
<glyph unicode="&#x20;" horiz-adv-x="512" d="" />
<glyph unicode="&#xe600;" glyph-name="ticket" horiz-adv-x="1325" d="M706.577 622.953l116.699-116.699-233.206-233.206-116.699 116.699 233.206 233.206zM1094.368 643.324l-67.011 67.011-29.127-29.127c-14.849-14.849-35.6-24.178-58.254-24.178-45.5 0-82.432 36.932-82.432 82.432 0 22.845 9.329 43.405 24.178 58.254l29.127 29.127-67.011 67.011c-27.223 27.223-71.961 27.223-99.375 0l-542.183-541.993c-27.223-27.223-27.223-71.961 0-99.375l67.011-67.011 29.127 29.127c14.849 15.039 35.6 24.178 58.254 24.178 45.5 0 82.432-36.932 82.432-82.432 0-22.845-9.329-43.405-24.178-58.254l-29.127-29.127 67.011-67.011c27.223-27.223 71.961-27.223 99.375 0l542.183 542.183c27.223 27.413 27.223 71.961 0 99.185v0zM590.068 156.348l-233.398 233.398 349.906 349.906 233.206-233.206-349.715-350.096z" />
<glyph unicode="&#xe602;" glyph-name="responsive-design" horiz-adv-x="1325" d="M1041.729 691.882h91.988v-36.755h-91.988v36.755zM1041.729 618.372h91.988v-18.479h-91.988v18.479zM825.263 789.351v-679.049h403.084v679.049h-403.084zM867.499 742.038h95.441v-176.668h-95.441v176.668zM867.499 531.053h95.441v-173.011h-95.441v173.011zM1183.671 154.978h-316.173v166.31h124.479v423.186h191.897v-589.498zM193.121 531.053h241.647v-36.755h-241.647v36.755zM193.121 457.341h149.456v-18.479h-149.456v18.479zM95.853 110.303h619.957v678.439h-619.957v-678.439zM513.557 746.708h154.938v-139.302h-154.938v139.302zM334.859 746.708h144.582v-139.302h-144.582v139.302zM143.167 746.708h157.375v-168.34h373.029v-423.391h-530.405v591.731z" />
<glyph unicode="&#xe603;" glyph-name="dd-zones" horiz-adv-x="1325" d="M679.99 678.776v-171.336l172.173-0.837v71.278c-0.502 8.533 4.016 15.226 13.553 20.413 9.035 2.175 16.899 0.502 23.759-5.020l108.591-110.264c4.016-2.844 5.856-8.199 5.856-16.063 0-4.518-2.008-9.37-5.856-14.39l-108.591-106.918c-6.86-7.864-14.724-9.705-23.759-5.020-9.537 2.844-14.222 9.537-13.553 20.413v67.932l-173.009 1.673 0.837-173.846 69.605 1.673c9.537-0.502 16.397-5.020 20.413-13.553 3.346-10.207 1.673-18.071-5.020-23.759l-108.591-110.264c-4.016-2.844-9.035-5.020-15.226-6.86-6.191 1.673-11.378 4.016-15.226 6.86l-108.925 109.762c-6.86 5.689-8.533 13.553-5.020 23.759 4.016 8.533 10.708 13.051 20.413 13.553l69.605-1.673 0.837 173.846-173.009-1.673v-67.932c0.502-7.362-1.339-12.716-5.856-16.063-1.673-2.844-4.183-4.183-7.697-4.183-9.035-4.518-16.899-2.844-23.759 5.020l-108.591 106.918c-4.016 5.020-5.856 9.872-5.856 14.39 0 7.864 2.008 13.218 5.856 16.063l108.591 110.264c6.86 5.689 15.059 7.027 24.596 4.183 9.035-4.518 13.218-11.043 12.716-19.576v-71.278l172.173 0.837v171.671l-69.605 1.673c-9.537-1.673-16.063 2.51-19.576 12.716-4.016 8.533-2.51 16.732 4.183 24.596l108.591 106.918c4.016 5.020 9.035 6.693 15.226 5.020 6.191 1.673 11.378 0 15.226-5.020l108.591-106.918c6.86-7.864 8.533-15.895 5.020-23.759-1.171-4.518-2.51-7.027-4.183-7.697-4.518-5.689-9.872-7.697-16.063-5.856l-69.438-1.673z" />
<glyph unicode="&#xe604;" glyph-name="reorderable-tabs" horiz-adv-x="1325" d="M419.493 461.517h-61.871v-30.841h371.229v30.841h-92.901zM345.629 634.185h204.080v-122.41h-204.080v122.41zM575.219 634.185h204.080v-122.41h-204.080v122.41zM804.808 634.185h204.080v-122.41h-204.080v122.41zM268.719 717.949v-745.883h817.083v745.883h-817.083zM318.787 21.945v645.937h717.136v-645.937h-717.136zM633.283 913.273c56.16 4.57 104.325-14.849 150.585-53.876l-48.926-34.268 139.734-64.917-13.707 153.631-51.211-35.981c-53.494 47.783-112.32 71.771-179.141 66.25-72.722-5.902-138.782-46.261-186.185-113.844l25.321-17.705c42.262 59.778 100.135 95.568 163.531 100.707z" />
<glyph unicode="&#xe605;" glyph-name="ajax-tabs" horiz-adv-x="1325" d="M261.864 810.279h255.671v-153.441h-255.671v153.441zM549.519 810.279h255.671v-153.441h-255.671v153.441zM837.173 810.279h255.671v-153.441h-255.671v153.441zM165.536 915.177v-934.352h1023.637v934.352h-1023.637zM228.168 43.266v809.277h898.562v-809.277h-898.562zM611.39 488.74c0 23.036 18.656 41.882 41.882 41.882s41.882-18.656 41.882-41.882c0-23.036-18.656-41.882-41.882-41.882s-41.882 18.847-41.882 41.882zM744.461 363.283v0c0 19.037 15.421 34.268 34.268 34.268s34.268-15.421 34.268-34.268v0c0-19.037-15.421-34.268-34.268-34.268s-34.268 15.23-34.268 34.268zM710.955 274.57c0 17.134 13.897 31.030 31.030 31.030 17.134 0 31.030-13.897 31.030-31.030 0-17.134-13.897-31.030-31.030-31.030-17.134-0.19-31.030 13.707-31.030 31.030zM625.096 237.637c0 15.611 12.564 28.175 28.175 28.175s28.175-12.564 28.175-28.175c0-15.611-12.564-28.175-28.175-28.175-15.611 0.19-28.175 12.754-28.175 28.175zM539.047 274.57c0 14.087 11.422 25.51 25.51 25.51s25.51-11.422 25.51-25.51c0-14.087-11.422-25.51-25.51-25.51s-25.51 11.422-25.51 25.51zM504.59 363.283c0 12.754 10.279 23.036 23.036 23.036s23.036-10.279 23.036-23.036c0-12.754-10.279-23.036-23.036-23.036-12.564 0-23.036 10.279-23.036 23.036zM543.617 451.998v0c0 11.613 9.329 20.941 20.941 20.941s20.941-9.329 20.941-20.941v0c0-11.613-9.329-20.941-20.941-20.941s-20.941 9.329-20.941 20.941zM779.871 451.998c0-20.941-16.944-37.885-37.885-37.885s-37.885 16.944-37.885 37.885c0 20.941 16.944 37.885 37.885 37.885s37.885-16.944 37.885-37.885z" />
<glyph unicode="&#xe606;" glyph-name="binding-child-session" horiz-adv-x="1325" d="M661.458 900.864c20.898 0 40.466-1.521 58.892-4.749 18.428-3.039 34.386-7.22 48.254-12.349s24.698-11.208 32.675-18.238c7.979-7.030 11.779-14.437 11.779-22.418v-27.167c0-8.549-3.99-16.339-11.779-23.747-7.979-7.407-18.808-13.678-32.675-18.998-13.868-5.319-29.826-9.688-48.254-12.728s-37.994-4.749-58.892-4.749c-20.898 0-40.466 1.521-58.892 4.749-18.428 3.039-34.386 7.407-48.254 12.728-13.868 5.319-24.698 11.779-32.675 18.998-7.979 7.407-11.779 15.199-11.779 23.747v27.356c0 7.979 3.99 15.388 11.779 22.418 7.979 7.030 18.808 13.108 32.675 18.238 13.868 5.129 29.826 9.118 48.254 12.349 18.428 3.039 37.994 4.561 58.892 4.561zM807.173 759.331c1.139 1.139 2.089 1.9 3.039 2.089 0.76 0.19 1.33 0.381 1.71 0.381 0.19 0 0.57-0.381 0.76-0.76 0.19-0.57 0.381-1.139 0.381-1.71s0-3.61 0-9.309c0-5.7 0-11.589 0-17.858s0-14.437 0-24.507c0-9.688-3.99-18.428-11.779-26.597-7.979-8.169-18.808-15.579-32.675-22.037-13.868-6.46-29.826-11.398-48.254-14.819-18.428-3.42-37.994-5.129-58.892-5.129s-40.466 1.71-58.892 5.129-34.386 8.358-48.254 14.819c-13.868 6.46-24.698 13.868-32.675 22.037-7.979 8.169-11.779 17.098-11.779 26.597 0 10.069 0 18.428 0 24.507 0 6.27 0 12.158 0 17.858s0 8.739 0 9.309c0 0.57 0.19 1.139 0.381 1.71 0.19 0.57 0.57 0.76 0.76 0.76s0.951-0.19 1.71-0.381c0.76-0.381 1.9-0.951 3.039-2.089 3.99-6.84 10.638-12.919 19.948-18.618s20.518-10.449 33.436-14.437c12.919-3.99 27.167-7.030 42.745-9.309s32.106-3.42 49.585-3.42c17.478 0 34.005 1.139 49.585 3.42 15.579 2.28 29.826 5.319 42.745 9.309s24.127 8.739 33.436 14.437c9.309 5.7 15.958 11.968 19.948 18.618zM807.173 648.385c1.139 1.139 2.089 1.9 3.039 2.469 0.76 0.57 1.33 0.76 1.71 0.381 0.19-0.381 0.57-0.76 0.76-1.33s0.381-1.33 0.381-2.469c0-0.57 0-3.039 0-7.599s0-9.5 0-14.819c0-5.319 0-12.349 0-20.707 0-10.259-3.99-20.518-11.779-30.966-7.979-10.449-18.808-19.567-32.675-27.547-13.868-7.979-29.826-14.437-48.254-19.379-18.428-5.129-37.994-7.599-58.892-7.599s-40.466 2.469-58.892 7.599-34.386 11.589-48.254 19.379c-13.868 7.979-24.698 17.098-32.675 27.547-7.979 10.449-11.779 20.707-11.779 30.966 0 8.549 0 15.388 0 20.707s0 10.259 0 14.819c0 4.561 0 7.030 0 7.599 0 1.139 0.19 1.9 0.381 2.469s0.57 0.951 0.76 1.33c0.19 0.19 0.951 0.19 1.71-0.381s1.9-1.33 3.039-2.469c4.561-7.407 11.398-14.248 20.707-20.707s20.327-11.968 33.056-16.529c12.728-4.561 26.787-7.979 42.365-10.638 15.579-2.469 32.106-3.799 49.585-3.799 17.478 0 34.005 1.33 49.585 3.799 15.579 2.469 29.636 6.079 42.365 10.638 12.728 4.561 23.747 10.069 33.056 16.529s16.149 13.489 20.707 20.707zM661.458 215.615c11.968 0 23.366-0.951 34.005-2.66 10.638-1.71 19.948-4.181 27.926-7.030 7.979-2.85 14.248-6.46 18.808-10.449 4.561-3.99 6.84-8.358 6.84-12.919v-15.579c0-4.939-2.28-9.5-6.84-13.678s-10.829-7.979-18.808-11.019c-7.979-3.039-17.287-5.51-27.926-7.407-10.638-1.71-21.848-2.66-34.005-2.66-11.968 0-23.366 0.951-34.005 2.66-10.638 1.71-19.948 4.181-27.926 7.407-7.979 3.039-14.248 6.84-18.808 11.019-4.561 4.181-6.84 8.739-6.84 13.678v15.579c0 4.561 2.28 8.929 6.84 12.919s10.829 7.599 18.808 10.449c7.979 2.85 17.287 5.319 27.926 7.030s22.037 2.66 34.005 2.66zM745.621 133.925c0.57 0.57 1.139 1.139 1.71 1.139 0.57 0.19 0.76 0.19 0.951 0.19s0.381-0.19 0.57-0.57c0.19-0.381 0.19-0.57 0.19-0.951s0-2.089 0-5.319c0-3.23 0-6.649 0-10.259s0-8.358 0-14.248c0-5.51-2.28-10.638-6.84-15.388s-10.829-8.929-18.808-12.728c-7.979-3.799-17.287-6.649-27.926-8.549s-21.848-2.85-34.005-2.85c-11.968 0-23.366 0.951-34.005 2.85s-19.948 4.749-27.926 8.549c-7.979 3.799-14.248 7.979-18.808 12.728-4.561 4.749-6.84 9.88-6.84 15.388 0 5.889 0 10.638 0 14.248s0 7.030 0 10.259c0 3.23 0 5.129 0 5.319 0 0.381 0 0.57 0.19 0.951s0.381 0.57 0.57 0.57c0.19 0 0.57 0 0.951-0.19 0.57-0.19 1.139-0.57 1.71-1.139 2.28-3.99 6.079-7.407 11.398-10.829 5.319-3.23 11.779-6.079 19.379-8.358 7.407-2.28 15.768-3.99 24.698-5.319 8.929-1.33 18.428-1.9 28.685-1.9 10.069 0 19.567 0.57 28.685 1.9 8.929 1.33 17.098 3.039 24.698 5.319 7.407 2.28 13.868 5.129 19.379 8.358 5.319 3.23 9.118 6.84 11.398 10.829zM745.621 69.905c0.57 0.57 1.139 1.139 1.71 1.521s0.76 0.381 0.951 0.19c0.19-0.19 0.381-0.381 0.57-0.76 0.19-0.381 0.19-0.76 0.19-1.521 0-0.381 0-1.71 0-4.369s0-5.51 0-8.549c0-3.039 0-7.030 0-11.968 0-5.889-2.28-11.779-6.84-17.858s-10.829-11.398-18.808-15.958c-7.979-4.561-17.287-8.358-27.926-11.208s-21.848-4.369-34.005-4.369c-11.968 0-23.366 1.521-34.005 4.369-10.638 2.85-19.948 6.649-27.926 11.208-7.979 4.561-14.248 9.88-18.808 15.958-4.561 6.079-6.84 11.968-6.84 17.858 0 4.939 0 8.929 0 11.968s0 5.889 0 8.549c0 2.66 0 3.99 0 4.369 0 0.57 0 1.139 0.19 1.521s0.381 0.57 0.57 0.76c0.19 0.19 0.57 0 0.951-0.19 0.57-0.381 1.139-0.76 1.71-1.521 2.66-4.181 6.649-8.169 11.968-11.968s11.779-6.84 18.998-9.5c7.407-2.66 15.388-4.561 24.507-6.079 8.929-1.521 18.428-2.28 28.685-2.28 10.069 0 19.567 0.76 28.685 2.28 8.929 1.521 17.098 3.42 24.507 6.079 7.407 2.66 13.678 5.7 18.998 9.5 5.319 3.61 9.309 7.599 11.968 11.968zM612.826 323.712c2.28 1.9 4.749 2.85 7.407 2.85h20.898v135.074h41.224v-135.074h20.327c3.039 0 5.51-0.951 7.407-2.85 2.28-2.28 3.42-4.749 3.42-7.407 0-2.66-1.139-5.129-3.42-7.407l-41.224-41.224c-1.9-1.9-4.369-2.85-7.407-2.85-2.66 0-5.129 0.951-7.407 2.85l-41.224 41.224c-1.9 2.28-2.85 4.749-2.85 7.407s0.951 5.129 2.85 7.407z" />
<glyph unicode="&#xe607;" glyph-name="exec-dashboard" horiz-adv-x="1325" d="M1088.152 887.553h-855.020c-22.161 0-40.201-17.65-40.201-39.613v-598.318c0-21.767 18.042-39.613 40.201-39.613h368.677l-161.788-159.826c-15.689-15.491-15.689-40.593 0.196-55.89 15.884-15.491 41.182-15.297 56.871 0.196l123.35 121.783v-34.711c0-21.964 18.042-39.613 40.201-39.613s40.201 17.65 40.201 39.613v34.711l123.155-121.783c7.844-7.844 18.238-11.57 28.436-11.57s20.591 3.726 28.436 11.57c15.689 15.297 15.884 40.398 0.196 55.89l-161.591 159.631h368.677c22.161 0 40.201 17.65 40.201 39.613v598.318c0 21.964-18.042 39.613-40.201 39.613zM1047.951 289.038h-774.618v417.314h774.618v-417.314zM1047.951 745.768h-774.618v62.558h774.618v-62.558zM441.004 330.615c22.161 0 40.201 17.65 40.201 39.613v118.645c0 21.767-18.042 39.613-40.201 39.613s-40.201-17.65-40.201-39.613v-118.645c0-21.767 18.042-39.613 40.201-39.613zM587.495 330.615c22.161 0 40.201 17.65 40.201 39.613v247.094c0 21.767-18.042 39.613-40.201 39.613-22.161 0-40.201-17.65-40.201-39.613v-247.094c0-21.767 17.845-39.613 40.201-39.613zM733.789 330.615c22.161 0 40.201 17.65 40.201 39.613v79.031c0 21.767-18.042 39.613-40.201 39.613s-40.201-17.65-40.201-39.613v-79.031c0-21.767 18.042-39.613 40.201-39.613zM880.281 330.615c22.161 0 40.201 17.65 40.201 39.613v197.674c0 21.767-18.042 39.613-40.201 39.613s-40.201-17.65-40.201-39.613v-197.674c0-21.767 18.042-39.613 40.201-39.613z" />
<glyph unicode="&#xe608;" glyph-name="combination-bindingtabs" horiz-adv-x="791" d="M42.733 773.653v-658.272h717.069v658.272h-717.069zM85.767 617.72v108.501h178.661v-108.501h-178.661zM306.254 617.72v108.501h178.812v-108.501h-178.812zM85.767 158.414v413.995h628.875v-411.723h-628.875v-2.274zM311.405 332.53c0-2.577 1.365-3.94 1.365-6.668 1.365-1.365 1.365-3.94 3.94-5.305 1.365-1.365 2.577-2.577 5.305-3.94 1.365-1.365 3.94-1.365 6.668-1.365h146.688c1.365 0 3.94 0 5.305 1.365 2.577 1.365 3.94 2.577 5.305 3.94s2.577 2.577 3.94 5.305c1.365 1.365 1.365 3.94 1.365 5.305h33.035v-15.912c0-3.94-1.365-7.88-2.577-11.97-1.365-3.94-3.94-7.88-6.668-10.607s-6.668-5.305-10.607-6.668c-3.94-1.365-7.88-2.577-13.184-2.577h-178.509c-3.94 0-7.88 1.365-11.97 2.577-3.94 1.365-7.88 3.94-10.607 6.668-2.577 2.577-5.305 6.668-7.88 10.607-1.365 3.94-2.577 7.88-1.365 11.97v15.912h30.458v1.365zM278.371 398.598v17.122c0 3.94 1.365 7.88 2.577 11.97 1.365 3.94 3.94 7.88 6.668 10.607s6.668 5.305 10.607 7.88c3.94 1.365 7.88 2.577 11.97 1.365h178.359c3.94 0 9.244 0 13.184-1.365s7.88-3.94 10.607-6.668c2.577-2.577 5.305-6.668 6.668-10.607s2.577-7.88 2.577-11.97v-15.912h-33.035c0 2.577 0 5.305-1.365 6.668 0-1.365 0 1.365-2.577 2.577-1.365 1.365-3.94 2.577-5.305 3.94-2.577 1.365-3.94 1.365-5.305 1.365h-146.688c-2.577 0-3.94-1.365-6.668-1.365-1.365-1.365-3.94-1.365-5.305-3.94-1.365-1.365-2.577-2.577-3.94-5.305-1.365-1.365-1.365-3.94-1.365-6.668h-31.672v0.303zM458.093 372.079c1.365 2.577 1.365 3.94 3.94 5.305 1.365 1.365 3.94 2.577 5.305 3.94s3.94 1.365 6.668 1.365h129.563c2.577 0 5.305 0 6.668-1.365 2.577-1.365 3.94-1.365 5.305-3.94s2.577-2.577 3.94-5.305c1.365-1.365 1.365-3.94 1.365-6.668s0-3.94 0-6.668c-1.365-2.577-2.577-3.94-3.94-5.305s-3.94-2.577-5.305-3.94c-2.577-1.365-3.94-1.365-6.668-1.365h-129.563c-2.577 0-5.305 0-6.668 1.365-2.577 1.365-3.94 1.365-5.305 3.94-1.365 1.365-2.577 2.577-3.94 5.305-1.365 1.365-1.365 3.94-1.365 6.668-1.365 2.727-1.365 4.092 0 6.668zM183.207 372.079c1.365 2.577 1.365 3.94 3.94 5.305 1.365 1.365 3.94 2.577 5.305 3.94s3.94 1.365 6.668 1.365h129.563c2.577 0 5.305 0 6.668-1.365 2.577-1.365 3.94-1.365 5.305-3.94s2.577-2.577 3.94-5.305c1.365-1.365 1.365-3.94 1.365-6.668s0-3.94 0-6.668c-1.365-2.577-2.577-3.94-3.94-5.305s-3.94-2.577-5.305-3.94-3.94-1.365-6.668-1.365h-129.563c-2.577 0-5.305 0-6.668 1.365-2.577 1.365-3.94 1.365-5.305 3.94-1.365 1.365-2.577 2.577-3.94 5.305-1.365 1.365-1.365 3.94-1.365 6.668-1.212 2.727-1.212 4.092 0 6.668z" />
<glyph unicode="&#xe609;" glyph-name="unemployment" horiz-adv-x="1325" d="M648.876 919.046v27.455c-125.116-3.334-242.583-52.556-332.791-139.822l19.415-19.415c85.11 82.169 195.517 128.449 313.377 131.783zM989.707 787.264l19.415 19.415c-90.209 87.071-207.48 136.49-332.791 139.822v-27.455c117.858-3.334 228.266-49.615 313.377-131.783zM342.95 101.677l-19.415-19.415c89.228-82.756 203.557-129.627 325.338-132.958v27.455c-114.526 3.334-221.991 47.262-305.925 124.92zM1133.452 427.212c-4.902-115.113-51.185-222.972-131.391-306.12l19.415-19.415c85.502 88.443 134.529 203.166 139.627 325.536h-27.651zM316.282 767.653l-19.415 19.415c-84.521-90.797-131.391-208.068-132.958-332.595h27.455c1.57 117.272 45.693 227.483 124.92 313.181zM1133.845 454.668h27.455c-1.57 124.526-48.634 241.603-132.958 332.595l-19.415-19.415c79.227-85.893 123.35-196.105 124.92-313.181zM191.754 427.212h-27.455c4.902-122.565 54.125-237.091 139.627-325.536l19.415 19.415c-80.403 83.149-126.684 190.812-131.588 306.12zM676.332-23.046v-27.455c121.783 3.334 236.308 50.008 325.338 132.958l-19.415 19.415c-83.934-77.854-191.399-121.783-305.925-124.92zM676.332 39.512v-27.455c105.113 3.137 203.754 43.535 281.215 114.526l-19.611 19.611c-69.619-63.539-161.002-103.348-261.604-106.682zM957.547 165.411l19.611-19.611c73.734 76.676 116.292 175.515 121.193 281.411h-27.455c-5.294-101.385-47.458-192.967-113.348-261.802zM387.272 146.193l-19.611-19.611c77.266-70.99 176.103-111.389 281.215-114.526v27.455c-100.602 3.334-191.989 43.142-261.604 106.682zM964.41 723.332c64.911-71.186 105.113-165.317 106.879-268.664h27.455c-1.57 107.858-41.966 209.246-114.72 288.275l-19.611-19.611zM254.509 427.212h-27.455c4.902-105.701 47.458-204.734 121.193-281.411l19.611 19.611c-66.088 68.833-108.25 160.415-113.348 261.802zM945.193 742.944l19.611 19.611c-78.247 75.304-180.026 118.055-288.472 121.389v-27.455c104.131-3.53 198.458-46.084 268.861-113.544zM360.796 723.332l-19.611 19.611c-72.756-79.031-113.153-180.418-114.72-288.275h27.455c1.765 103.348 41.966 197.479 106.879 268.664zM648.876 856.488v27.455c-108.446-3.334-210.029-46.084-288.472-121.389l19.611-19.611c70.402 67.46 164.729 110.016 268.861 113.544zM676.332 796.676c87.659-3.334 167.278-39.22 226.697-95.895l19.415 19.415c-64.518 61.577-150.806 100.602-246.113 104.131v-27.651zM1011.671 454.668h27.455c-1.57 94.523-38.239 180.613-97.465 245.917l-19.415-19.415c54.125-60.401 87.659-139.627 89.425-226.502zM402.959 681.171l-19.415 19.415c-59.225-65.303-95.7-151.393-97.465-245.917h27.455c1.765 86.875 35.3 166.101 89.425 226.502zM676.332 99.127v-27.455c91.777 3.334 175.123 39.613 238.856 97.269l-19.415 19.415c-58.83-52.753-135.311-85.893-219.443-89.228zM915.384 207.574l19.415-19.415c60.204 62.95 98.641 146.688 103.739 239.052h-27.455c-5.098-84.914-40.593-161.788-95.7-219.638zM314.123 427.212h-27.455c5.098-92.365 43.535-176.103 103.739-239.052l19.415 19.415c-55.106 57.851-90.601 134.725-95.7 219.638zM429.433 188.356l-19.415-19.415c63.734-57.655 147.079-93.934 238.856-97.269v27.455c-84.128 3.334-160.609 36.476-219.443 89.228zM648.876 796.676v27.455c-95.307-3.53-181.594-42.358-246.113-104.131l19.415-19.415c59.42 56.871 139.039 92.757 226.697 96.092zM371.387 427.212h-27.455c4.902-76.676 37.064-146.1 86.875-198.655l19.415 19.415c-44.712 47.458-73.931 110.016-78.836 179.24zM676.332 156.391v-27.455c75.894 3.137 145.118 33.142 198.264 80.403l-19.415 19.415c-48.243-42.358-110.407-69.225-178.847-72.363zM874.986 247.972l19.415-19.415c49.811 52.556 81.973 121.977 86.875 198.655h-27.455c-4.902-69.225-34.122-131.783-78.836-179.24zM862.631 660.383l19.415 19.415c-54.125 51.38-126.292 83.934-205.716 87.267v-27.455c71.972-3.334 137.079-32.946 186.301-79.227zM443.555 640.575l-19.415 19.415c-48.83-54.909-79.031-126.684-80.796-205.519h27.455c1.57 71.383 28.827 136.293 72.756 186.104zM462.576 660.383c49.222 46.281 114.33 75.894 186.301 79.227v27.455c-79.422-3.334-151.59-35.889-205.716-87.267l19.415-19.415zM470.028 228.951l-19.415-19.415c53.34-47.458 122.371-77.266 198.264-80.403v27.455c-68.441 2.942-130.606 29.807-178.847 72.363zM954.408 454.668h27.455c-1.57 78.637-31.77 150.609-80.796 205.519l-19.415-19.415c43.928-50.008 71.186-114.918 72.756-186.104zM471.793 368.773h348.48v-43.535h-348.48v43.535zM515.329 455.844h43.535v-65.303h-43.535v65.303zM580.632 543.11h43.535v-152.375h-43.535v152.375zM645.933 477.807h43.535v-87.071h-43.535v87.071zM711.237 608.415h43.535v-217.875h-43.535v217.875z" />
<glyph unicode="&#xe60a;" glyph-name="drawing" horiz-adv-x="1325" d="M388.016 177.778l163.639 37.814 333.469 333.469-125.825 125.825-333.469-333.469-37.814-163.639zM539.106 297.412l-25.098 25.098 245.292 251.65 31.456-25.098-251.65-251.65zM910.222 743.99c12.549-4.183 22.086-10.541 28.277-18.907 6.358-8.533 11.545-17.903 15.728-28.277 4.183-10.541 6.358-22.086 6.358-34.635 0-4.183 0-8.533 0-12.549 0-4.183-1.004-8.533-3.179-12.549-2.175-4.183-4.183-8.533-6.358-12.549-2.175-4.183-3.179-8.533-3.179-12.549l-37.647-37.814-125.825 125.825 37.814 37.814c4.183 0 8.366 1.004 12.549 3.179 4.183 2.008 8.366 4.183 12.549 6.358 4.183 2.008 8.366 3.179 12.549 3.179s8.366 0 12.549 0c12.716-0.167 25.265-2.342 37.814-6.525z" />
<glyph unicode="&#xe60b;" glyph-name="keyboard-navigation" d="M656.877 303.218h-404.29v80.498h364.847c0.19 4.077 1.707 8.154 4.836 11.188l34.607 34.607v75.662h75.662l41.15 41.15h-157.772v80.593h162.702v-75.662l37.262 37.262c6.542 6.542 17.161 6.542 23.609 0l19.721-19.721v81.825c0 8.439-1.707 16.024-4.741 22.945-3.129 6.827-7.016 12.705-11.757 17.446-4.741 4.646-10.524 8.723-17.446 11.757-6.827 3.224-14.507 4.741-22.945 4.741h-695.182c-8.439 0-16.024-1.707-22.945-4.741-6.827-3.129-12.705-7.016-17.446-11.757-4.646-4.741-8.723-10.524-11.757-17.446-3.224-6.827-4.741-14.507-4.741-22.945v-371.105c0-8.439 1.707-16.024 4.741-22.945 3.129-6.827 7.016-12.895 11.757-18.11s10.524-9.197 17.446-11.757c6.827-2.75 14.507-3.887 22.945-3.887h663.704l-113.967 113.967v-33.564zM615.917 424.865h-80.498v80.498h80.498v-80.498zM495.787 627.105h80.498v-80.498h-80.498v80.498zM495.787 424.865h-82.11v80.498h82.11v-80.498zM374.234 627.105h80.498v-80.498h-80.498v80.498zM374.234 424.865h-80.498v80.498h80.498v-80.498zM252.587 627.105h80.498v-80.498h-80.498v80.498zM252.587 424.865h-80.593v80.498h80.498l0.095-80.498zM130.939 627.105h80.498v-80.498h-80.498v80.498zM211.437 303.218h-80.593v80.498h80.498l0.095-80.498zM981.523 389.973l-46.744 47.502c-2.939 2.37-6.353 3.224-10.24 2.276-4.172-2.276-6.068-5.12-5.784-8.723v-30.72l-74.24 0.284v73.861l29.961 0.759c2.75-0.759 5.025 0.19 6.921 2.56 0.759 0.284 1.327 1.327 1.801 3.224 1.422 3.413 0.759 6.827-2.276 10.24l-46.744 45.985c-1.707 2.276-3.887 2.939-6.637 2.276-2.75 0.759-4.836 0-6.637-2.181l-46.744-46.080c-2.939-3.413-3.603-6.921-1.801-10.619 1.517-4.361 4.267-6.163 8.439-5.499l29.961-0.759v-73.766l-74.24-0.379v30.72c0.284 3.698-1.612 6.447-5.499 8.439-4.172 1.233-7.68 0.664-10.619-1.801l-46.839-47.502c-1.707-1.233-2.56-3.603-2.56-6.921 0-1.991 0.853-4.077 2.56-6.163l46.744-45.985c2.939-3.413 6.353-4.172 10.24-2.276 1.422 0 2.56 0.664 3.224 1.801 1.991 1.422 2.75 3.698 2.56 6.921v29.203l74.619 0.759-0.379-74.904-29.961 0.759c-4.172-0.284-7.111-2.276-8.723-5.784-1.422-4.361-0.759-7.775 2.276-10.24l46.744-47.502c1.707-1.233 3.982-2.276 6.637-2.939 2.655 0.759 4.836 1.707 6.542 2.939l46.839 47.502c2.939 2.37 3.698 5.879 2.181 10.24-1.707 3.698-4.646 5.594-8.723 5.784l-30.056-0.759-0.284 74.904 74.524-0.759v-29.298c-0.284-4.646 1.707-7.585 5.879-8.723 3.887-1.896 7.301-1.233 10.24 2.181l46.744 45.985c1.707 2.181 2.56 4.267 2.56 6.163 0.095 3.508-0.759 5.879-2.465 7.016z" />
<glyph unicode="&#xe60c;" glyph-name="screen-reader" d="M856.841 279.135c0 0.19 0.19 0.379 0.19 0.474 0 0.474-0.474 1.707-0.664 2.37-3.224 19.721-35.176 56.699-84.006 92.729-67.603 56.889-165.357 117.476-252.776 117.476s-185.268-60.397-252.776-117.476c-48.83-36.124-80.782-73.102-84.006-92.729-0.19-0.664-0.664-1.707-0.664-2.37 0-0.19 0.19-0.379 0.19-0.474s-0.19-0.379-0.19-0.474c0-0.474 0.474-1.707 0.664-2.37 3.224-19.721 35.176-56.699 84.006-92.729 67.603-56.889 165.357-117.476 252.776-117.476s185.268 60.397 252.776 117.476c48.83 36.124 80.782 73.102 84.006 92.729 0.19 0.664 0.664 1.707 0.664 2.37-0.19 0.19-0.19 0.379-0.19 0.474zM519.396 153.221c-69.784 0-126.293 56.415-126.483 126.009 0.379 69.784 56.699 126.009 126.483 126.009s126.293-56.415 126.483-126.009c-0.19-69.689-56.699-126.009-126.483-126.009zM519.396 323.508c-23.23 0-42.193-18.868-42.193-42.193 0-0.379 0-0.474 0-0.853s0-0.474 0-0.853c0-23.23 18.868-42.193 42.193-42.193 23.23 0 42.193 18.868 42.193 42.193 0 0.379 0 0.474 0 0.853s0 0.474 0 0.853c-0.095 23.324-18.963 42.193-42.193 42.193zM757.95 477.772l59.544 59.733c-79.644 79.644-185.742 123.639-298.287 123.639s-218.643-43.804-298.287-123.639l59.544-59.733c63.716 63.716 148.575 98.892 238.744 98.892s175.028-35.176 238.744-98.892zM749.227 783.265c-72.818 30.815-150.281 46.554-229.926 46.554s-157.108-15.55-229.926-46.554c-70.258-29.772-133.499-72.249-187.733-126.673l59.733-59.733c95.763 95.763 222.815 148.29 358.116 148.29s262.353-52.717 358.021-148.29l59.733 59.733c-54.424 54.424-117.57 96.901-188.018 126.673z" />
<glyph unicode="&#xe60d;" glyph-name="color-picker" d="M850.412 706.166c-0.197 2.363-0.394 4.825-0.788 7.188-0.394 2.462-0.886 4.825-1.477 7.188-0.886 3.643-2.068 7.188-3.545 10.732-0.985 2.363-2.068 4.726-3.249 6.991-4.135 8.074-9.649 15.655-16.443 22.548-0.985 0.985-2.068 1.969-3.151 2.954-0.394 0.295-0.689 0.591-1.083 0.886-0.689 0.591-1.477 1.28-2.166 1.871-0.394 0.394-0.886 0.689-1.28 0.985-0.689 0.492-1.378 1.083-2.068 1.575-0.492 0.394-0.886 0.689-1.378 0.985-0.689 0.492-1.28 0.985-1.969 1.378-0.492 0.295-0.985 0.689-1.477 0.985-0.689 0.394-1.378 0.886-1.969 1.28-0.492 0.295-0.985 0.591-1.477 0.886-0.689 0.394-1.378 0.788-2.068 1.182-0.492 0.295-0.985 0.591-1.575 0.788-0.689 0.394-1.378 0.689-2.068 1.083-0.492 0.295-0.985 0.492-1.575 0.788-0.689 0.295-1.378 0.689-2.166 0.985-0.492 0.197-0.985 0.492-1.575 0.689-0.788 0.295-1.477 0.591-2.265 0.886-0.492 0.197-0.985 0.394-1.477 0.591-0.788 0.295-1.575 0.591-2.363 0.788-0.394 0.098-0.886 0.295-1.28 0.394-0.985 0.295-1.871 0.591-2.855 0.788-0.295 0.098-0.591 0.197-0.886 0.295-1.28 0.295-2.56 0.591-3.742 0.886-0.295 0.098-0.492 0.098-0.788 0.098-0.985 0.197-1.969 0.394-3.052 0.591-0.492 0.098-0.886 0.098-1.378 0.197-0.788 0.098-1.575 0.197-2.462 0.295-0.492 0.098-0.985 0.098-1.575 0.098-0.788 0.098-1.477 0.098-2.265 0.197-0.492 0-1.083 0-1.575 0.098-0.689 0-1.477 0.098-2.166 0.098-0.197 0-0.394 0-0.689 0-0.394 0-0.886 0-1.28 0-0.492 0-0.985 0-1.477 0-0.689 0-1.378-0.098-2.068-0.098-0.492 0-0.886-0.098-1.378-0.098-0.689-0.098-1.477-0.098-2.166-0.197-0.394 0-0.788-0.098-1.182-0.098-0.886-0.098-1.772-0.295-2.757-0.394-0.197 0-0.394-0.098-0.591-0.098-1.083-0.197-2.265-0.394-3.348-0.689-0.295-0.098-0.492-0.098-0.788-0.197-0.886-0.197-1.674-0.394-2.462-0.689-0.394-0.098-0.788-0.197-1.083-0.394-0.689-0.197-1.378-0.394-2.068-0.689-0.394-0.098-0.788-0.295-1.28-0.492-0.689-0.197-1.28-0.492-1.871-0.689-0.394-0.197-0.886-0.394-1.28-0.492-0.591-0.295-1.182-0.492-1.772-0.788-0.394-0.197-0.886-0.394-1.28-0.591-0.591-0.295-1.182-0.591-1.772-0.886-0.394-0.197-0.788-0.492-1.28-0.689-0.591-0.295-1.182-0.689-1.674-0.985-0.394-0.197-0.788-0.492-1.182-0.788-0.591-0.394-1.083-0.689-1.674-1.083-0.394-0.295-0.788-0.492-1.182-0.788-0.591-0.394-1.083-0.788-1.674-1.28-0.394-0.295-0.689-0.492-1.083-0.788-0.591-0.492-1.182-0.985-1.772-1.477-0.295-0.197-0.591-0.492-0.886-0.689-0.886-0.788-1.674-1.575-2.56-2.363-1.575-1.575-3.052-3.151-4.332-4.923-1.083-0.788-2.166-1.674-3.151-2.658l-98.462-98.658-20.283 20.283c-1.969 1.969-4.135 3.545-6.498 4.726-3.151 1.575-6.498 2.56-9.846 2.954-0.886 0.098-1.674 0.098-2.56 0.098s-1.674 0-2.56-0.098c-1.674-0.197-3.446-0.492-5.022-0.985-4.037-1.182-7.877-3.348-11.126-6.498-0.098-0.098-0.098-0.098-0.197-0.197v0l-33.871-33.871c-3.348-3.348-5.612-7.483-6.794-11.815-1.28-4.726-1.28-9.649 0-14.375 1.182-4.332 3.446-8.369 6.794-11.717l34.658-34.658-342.351-342.252c-0.295-0.295-0.591-0.689-0.886-0.985-0.591-0.689-1.083-1.477-1.575-2.265s-0.788-1.674-1.182-2.56c-0.295-0.886-0.591-1.871-0.886-2.855-0.197-0.985-0.492-2.068-0.591-3.052-0.295-1.575-0.492-3.249-0.591-5.022-0.098-0.591-0.098-1.182-0.197-1.772-0.098-1.182-0.197-2.363-0.295-3.545-0.098-1.772-0.295-3.643-0.394-5.514-0.197-2.462-0.492-4.923-0.886-7.385-0.098-0.591-0.197-1.182-0.295-1.871-1.083-5.514-2.954-10.732-6.498-15.262-0.394-0.492-0.689-0.886-0.985-1.28-3.545-4.431-6.695-8.369-9.255-11.717-0.591-0.689-1.083-1.378-1.674-2.068-5.317-6.695-8.172-10.338-8.172-10.338-6.006-6.006-5.809-13.095-1.969-20.185 1.969-3.742 5.022-7.483 8.566-11.126l3.742-3.742c0 0 0 0 0 0 0.788-0.788 1.477-1.477 2.265-2.166 0.197-0.197 0.492-0.394 0.689-0.591 0.591-0.492 1.083-0.985 1.674-1.378 0.295-0.197 0.492-0.394 0.788-0.591 0.591-0.492 1.182-0.886 1.772-1.378 0.197-0.098 0.394-0.295 0.591-0.394 0.788-0.492 1.575-0.985 2.363-1.477 0.197-0.098 0.394-0.197 0.492-0.295 0.591-0.295 1.182-0.689 1.871-0.886 0.295-0.098 0.492-0.197 0.788-0.295 0.591-0.197 1.083-0.492 1.674-0.591 0.197-0.098 0.492-0.197 0.689-0.197 0.788-0.197 1.477-0.394 2.265-0.492 0 0 0.098 0 0.098 0 0.788-0.098 1.575-0.197 2.265-0.197 0.098 0 0.197 0 0.197 0 0.492 0 0.985 0 1.378 0.098 0 0 0 0 0.098 0 0.591 0.098 1.083 0.197 1.674 0.295 0.197 0 0.295 0.098 0.492 0.098 0.492 0.098 0.886 0.295 1.378 0.394 0.098 0 0.295 0.098 0.394 0.098 0.591 0.197 1.083 0.492 1.674 0.788 0.098 0.098 0.197 0.197 0.394 0.197 0.394 0.295 0.886 0.591 1.28 0.886 0.197 0.098 0.295 0.197 0.394 0.295 0.492 0.394 1.083 0.886 1.575 1.378 0 0 1.378 0.985 4.037 2.954 1.28 0.985 2.855 2.166 4.726 3.643 1.182 0.985 2.56 1.969 4.037 3.151 3.643 2.855 7.877 6.4 12.702 10.437 0.492 0.394 0.985 0.788 1.477 1.182 13.686 9.945 34.265 4.923 45.982 10.043 1.772 0.788 3.249 1.772 4.628 3.052l342.351 342.351 37.317-37.317c0.591-0.591 1.182-1.083 1.871-1.674 10.437-8.665 26.191-8.172 35.938 1.674l33.871 33.871c3.938 3.938 6.302 8.763 7.286 13.785 0.197 0.886 0.295 1.674 0.394 2.56s0.098 1.674 0.098 2.56c0 0.886 0 1.674-0.098 2.56-0.197 1.674-0.492 3.446-0.985 5.022-0.394 1.182-0.788 2.363-1.378 3.545-1.28 2.757-3.052 5.415-5.317 7.778l-70.498 70.498c0 0 53.76-41.255 58.191-36.825s87.926 87.926 87.926 87.926c0.985 0.985 1.871 2.068 2.658 3.151 0.886 0.689 1.674 1.378 2.462 2.068s1.575 1.477 2.363 2.265c12.898 12.898 19.003 30.129 18.708 48.148 0.098 1.083 0 2.265-0.098 3.446zM514.265 378.191c-14.966-14.966-76.997 48.049-76.997 48.049l-209.231-207.951c0 0-10.142 7.68-2.068 15.754s334.474 334.474 334.474 334.474l72.074-72.074c0 0-100.135-100.135-118.252-118.252z" />
<glyph unicode="&#xe60e;" glyph-name="aria" horiz-adv-x="1325" d="M612.894 163.89c-93.365 0-168.993 75.629-168.993 168.993 0 66.092 37.982 123.482 93.365 151.090l-32.46 64.753c-79.142-39.655-133.354-121.475-133.354-216.010 0-133.354 108.089-241.443 241.443-241.443s241.443 108.089 241.443 241.443h-72.45c0-93.197-75.629-168.826-168.993-168.826zM1095.78 332.884l-48.356-48.188-164.81 164.81h-173.176v76.633h193.088v48.356h-193.088v96.544h-96.544v-289.631h241.443l193.088-193.255 96.544 96.544-48.188 48.188zM588.8 791.508c0-39.99 32.46-72.45 72.45-72.45s72.45 32.46 72.45 72.45-32.46 72.45-72.45 72.45c-39.99 0-72.45-32.46-72.45-72.45z" />
<glyph unicode="&#xe60f;" glyph-name="column-renderer-3d" horiz-adv-x="1365" d="M894.293 842.24l-76.8-30.72-2.276-648.533 130.844-2.276 73.956 42.667 5.689 641.138-131.413-2.276zM1000.676 214.756l-34.702-20.48 3.982 606.436 35.84 14.791-5.12-600.747zM570.027 655.076l-1.707-495.502 131.413-1.707 73.956 41.529 3.982 489.244-130.844-1.707-76.8-31.858zM694.613 177.778l-106.951 1.138 1.707 456.249 113.778 1.707-3.413-456.249-5.12-2.844zM719.076 191.431l3.413 450.56 35.271 16.498-3.982-447.716-34.702-19.342zM731.022 669.298l-28.444-12.516-81.351-1.138 29.582 12.516 80.213 1.138zM321.991 517.973l-1.138-356.124 131.413-1.138 73.956 40.391 2.844 352.142-130.844-1.707-76.231-33.564zM506.88 212.48l-35.271-19.342 2.276 313.458 35.84 15.929-2.844-310.044z" />
<glyph unicode="&#xe610;" glyph-name="column-stacked-100-3d" horiz-adv-x="1365" d="M769.138 452.551v0l-1.707 197.973v26.738l-1.138 119.467-122.311 1.138-69.404-50.062 1.707-133.689h-0.569l4.551-237.796 3.982-214.471 121.742-1.138 65.422 57.458-2.276 234.382zM744.676 660.196l-23.324-20.48-1.138 95.573 23.893 17.067 0.569-92.16zM596.196 594.204l82.489 1.138 2.844-197.404-81.351-1.138-3.982 197.404zM718.507 605.013l29.013 26.169 1.138-194.56-27.876-25.6-2.276 193.991zM725.902 205.084l-2.844 176.356 26.738 25.031 1.707-178.631-25.6-22.756zM993.28 422.969v0l-0.569 145.067v229.831l-122.311 1.707-69.973-48.356 0.569-218.453h-0.569l3.413-184.889 3.413-183.182 121.742-1.707 65.991 56.889-1.707 203.093zM969.956 578.276l-23.324-20.48-0.569 179.769 23.893 16.498v-175.787zM821.476 513.422l81.92 0.569 1.707-144.498-81.351-0.569-2.276 144.498zM943.787 523.093l29.013 26.169v-141.653l-27.876-25.6-1.138 141.084zM948.338 207.36l-1.707 145.067 26.738 25.031 1.138-147.342-26.169-22.756zM541.013 507.733v0l-3.413 190.578-1.138 94.436h-122.311l-69.404-48.924 1.138-83.058v-11.947l5.689-217.884 7.396-272.498h121.742l65.422 58.027-5.12 291.271zM514.276 709.12l-23.324-21.049-0.569 43.804 23.324 17.067 0.569-39.822zM366.933 640.853l81.92 2.276 4.551-190.009-81.351-1.707-5.12 189.44zM488.676 653.369l29.013 26.169 2.844-187.733-27.307-25.6-4.551 187.164zM500.622 202.24l-5.689 234.382 26.738 25.031 4.551-236.658-25.6-22.756z" />
<glyph unicode="&#xe611;" glyph-name="column-stacked-3d" horiz-adv-x="1365" d="M398.791 565.191l-75.662-32.427 0.569-191.716 0.569-171.236 129.707 0.569 71.111 46.649 1.707 186.596h-0.569l2.276 164.978-129.707-3.413zM435.2 362.098l-92.729-2.276v154.738l93.867 2.276-1.138-154.738zM506.88 227.271l-33.564-22.187 0.569 138.24 34.702 24.462-1.707-140.516zM508.018 394.524l-35.84-25.031 1.138 154.169 36.978 16.498-2.276-145.636zM642.276 661.902l-75.662-38.684v-451.129l129.707-1.707 71.111 56.889 2.276 232.107-0.569-0.569 2.844 204.8-129.707-1.707zM675.84 405.902l-88.178-0.569v196.836l89.316 0.569-1.138-196.836zM747.52 236.373l-29.582-23.324 0.569 174.080 30.72 26.169-1.707-176.924zM749.227 444.018l-31.289-26.738 1.138 193.991 32.996 17.067-2.844-184.32zM1014.329 792.747l-130.276 1.707-75.662-47.787v-577.991l129.707-5.689 71.111 70.542 2.276 296.96-0.569-0.569 3.413 262.827zM914.773 463.36l-83.058 1.138v258.276l84.196-1.138-1.138-258.276zM985.884 244.338l-23.893-23.893 0.569 224.711 25.031 26.738-1.707-227.556zM987.591 510.009l-26.169-27.307 1.138 249.173 27.307 17.636-2.276-239.502z" />
<glyph unicode="&#xe612;" glyph-name="column-grouped-3d" horiz-adv-x="1365" d="M984.178 744.391l-66.56-26.738-2.276-564.338 113.778-1.707 64.284 37.547 4.551 557.511-113.778-2.276zM1076.338 198.258l-30.151-17.636 3.413 527.36 31.289 13.084-4.551-522.809zM636.587 746.667v0 0l-113.778-2.276-66.56-26.738-2.276-564.338 113.778-1.707 64.284 37.547 4.551 557.511zM614.969 198.827l-30.151-17.636 3.413 527.36 31.289 13.084-4.551-522.809zM719.644 581.689l-1.707-430.649 114.347-1.138 64.284 36.409 3.413 425.529-113.778-1.707-66.56-28.444zM879.502 195.413l-30.72-17.067 2.844 393.671 31.289 13.653-3.413-390.258zM262.827 462.222l-1.138-310.044 114.347-1.138 64.284 35.271 2.844 306.062-113.778-1.138-66.56-29.013zM423.822 196.551l-30.72-16.498 1.707 272.498 30.72 14.222-1.707-270.222z" />
<glyph unicode="&#xe613;" glyph-name="column-basic-3d" horiz-adv-x="1365" d="M836.267 798.436l-71.111-28.444-2.276-603.022 121.742-1.707 68.267 39.822 5.12 595.627-121.742-2.276zM934.684 215.324l-32.427-18.773 3.982 563.769 33.564 13.653-5.12-558.649zM534.756 624.924l-1.707-460.231 121.742-1.138 68.836 38.684 3.982 454.542-121.742-1.707-71.111-30.151zM705.991 211.911l-32.427-18.204 2.844 420.409 32.996 14.222-3.413-416.427zM304.356 496.924l-1.138-331.093 122.311-1.138 68.836 37.547 2.844 327.111-121.742-1.138-71.111-31.289zM476.16 213.049l-32.427-17.636 2.276 291.271 32.996 14.791-2.844-288.427z" />
<glyph unicode="&#xe614;" glyph-name="spreadsheet-checked" horiz-adv-x="1365" d="M208.213 769.422v-632.036h939.804v632.036h-939.804zM509.156 174.933h-263.396v158.151h263.396v-158.151zM509.156 370.631h-263.396v160.996h263.396v-160.996zM509.156 569.173h-263.396v162.702h263.396v-162.702zM809.529 174.933h-262.827v158.151h263.396v-158.151zM809.529 370.631h-262.827v160.996h263.396v-160.996zM809.529 569.173h-262.827v162.702h263.396v-162.702zM1110.471 174.933h-263.396v158.151h263.396v-158.151zM1110.471 370.631h-263.396v160.996h263.396v-160.996zM1110.471 569.173h-263.396v162.702h263.396v-162.702zM455.68 692.053l-25.031 25.031-75.093-75.093-35.271 35.271-25.031-25.031 60.302-60.302zM455.68 491.236l-25.031 25.031-75.093-75.093-35.271 35.271-25.031-25.031 60.302-60.302zM455.68 282.453l-25.031 25.031-75.093-75.093-35.271 35.271-25.031-25.031 60.302-60.302z" />
<glyph unicode="&#xe615;" glyph-name="binding-selection" horiz-adv-x="1365" d="M178.631 544.711v-273.067h390.258v358.4h-390.258v-85.333zM551.253 289.28h-354.987v67.129h355.556v-67.129zM551.253 441.173v-67.129h-354.987v67.129h354.987zM196.267 612.409h355.556v-67.129h-355.556v67.129zM796.444 630.044v-358.4h390.827v358.4h-390.827zM1169.067 289.28h-355.556v67.129h355.556v-67.129zM1169.067 527.644v-67.129h-355.556v67.129h355.556zM814.080 612.409h355.556v-67.129h-355.556v67.129zM689.493 416.142c-0.569 1.138-1.707 1.707-2.844 2.276s-2.276 0.569-3.413 0.569c-1.138 0-2.844 0-3.982-0.569s-2.276-1.138-2.844-2.276c-0.569-1.138-1.707-1.707-1.707-3.413-0.569-1.138-0.569-2.276-0.569-3.982v-75.093c0-1.138 0-2.844 1.138-3.982 0.569-1.138 1.138-2.276 2.276-3.413 0.569-1.138 1.707-1.707 2.844-2.276s2.276-0.569 3.413-0.569c1.138 0 2.844 0 3.982 0.569s2.276 1.138 2.844 2.276c0.569 1.138 1.707 2.276 1.707 3.413 0.569 1.138 0.569 2.276 0.569 3.982v75.093c0 1.138 0 2.844-1.138 3.982s-1.707 2.276-2.276 3.413zM728.747 510.578c-1.138 2.276-2.276 4.551-3.982 6.258s-3.982 2.844-6.258 3.982c-2.276 1.138-4.551 1.138-6.827 1.138h-9.671v-18.773c1.138 0 2.844-0.569 3.413-1.138 1.138-0.569 1.707-1.138 2.844-2.276 1.138-0.569 1.707-1.707 2.276-2.844s0.569-2.276 1.138-3.413v-85.333c-0.569-1.138-0.569-2.276-1.138-3.413s-1.138-2.276-1.707-3.413c-0.569-1.138-1.707-1.707-2.844-2.276s-2.276-0.569-3.982-0.569v-19.342h9.671c2.276 0 4.551 0.569 6.827 1.138 2.276 1.138 4.551 2.276 6.258 3.982s2.844 3.982 3.982 6.258c1.138 2.276 1.138 5.12 1.138 7.396v103.538c0 4.551 0 6.827-1.138 9.102zM689.493 575.431c-0.569 1.138-1.707 1.707-2.844 2.276s-2.276 0.569-3.413 0.569c-1.138 0-2.844 0-3.982-0.569s-2.276-1.138-2.844-2.276c-0.569-1.138-1.707-1.707-1.707-3.413-0.569-1.138-0.569-2.276-0.569-3.982v-75.093c0-1.138 0-2.844 1.138-3.982 0.569-1.138 1.138-2.276 2.276-3.413 0.569-1.138 1.707-1.707 2.844-2.276s2.276-0.569 3.413-0.569c1.138 0 2.844 0 3.982 0.569s2.276 1.138 2.844 2.276c0.569 1.138 1.707 2.276 1.707 3.413 0.569 1.138 0.569 2.276 0.569 3.982v75.093c0 1.138 0 2.844-1.138 3.982s-1.707 2.276-2.276 3.413zM660.48 400.213c-1.138 0.569-1.707 1.138-2.844 2.276-1.138 0.569-1.707 1.707-2.276 3.413-0.569 1.138-0.569 2.276-1.138 3.413v85.333c0 1.138 0.569 2.844 1.138 3.413 0.569 1.138 1.138 1.707 2.276 2.844 0.569 1.138 1.707 1.707 2.844 2.276s2.276 0.569 3.413 1.138v17.636h-9.102c-2.276 0.569-5.12 0-7.396-1.138s-4.551-2.276-6.258-3.982c-1.707-1.707-2.844-3.982-3.982-6.258s-1.138-4.551-1.707-6.827v-103.538c0-2.844 0.569-5.12 1.138-7.964 1.138-2.276 2.276-4.551 3.982-6.258s3.982-2.844 6.258-3.982c2.276-1.138 4.551-1.138 6.827-1.707h9.671v19.342c-1.138-0.569-2.276 0-2.844 0.569z" />
<glyph unicode="&#xe616;" glyph-name="lineardata-tree" horiz-adv-x="1365" d="M493.227 669.867h-267.378c-14.222 0-25.6 11.378-25.6 25.6s11.378 25.6 25.6 25.6h266.809c14.222 0 25.6-11.378 25.6-25.6s-10.809-25.6-25.031-25.6zM493.227 544.711h-267.378c-14.222 0-25.6 11.378-25.6 25.6s11.378 25.6 25.6 25.6h266.809c14.222 0 25.6-11.378 25.6-25.6s-10.809-25.6-25.031-25.6zM493.227 419.556h-267.378c-14.222 0-25.6 11.378-25.6 25.6s11.378 25.6 25.6 25.6h266.809c14.222 0 25.6-11.378 25.6-25.6s-10.809-25.6-25.031-25.6zM493.227 294.4h-267.378c-14.222 0-25.6 11.378-25.6 25.6s11.378 25.6 25.6 25.6h266.809c14.222 0 25.6-11.378 25.6-25.6s-10.809-25.6-25.031-25.6zM493.227 169.244h-267.378c-14.222 0-25.6 11.378-25.6 25.6s11.378 25.6 25.6 25.6h266.809c14.222 0 25.6-11.378 25.6-25.6s-10.809-25.6-25.031-25.6zM1145.173 669.867h-297.529c-14.222 0-25.6 11.378-25.6 25.6s11.378 25.6 25.6 25.6h297.529c14.222 0 25.6-11.378 25.6-25.6s-11.378-25.6-25.6-25.6zM1145.173 544.711h-190.009c-14.222 0-25.6 11.378-25.6 25.6s11.378 25.6 25.6 25.6h190.009c14.222 0 25.6-11.378 25.6-25.6s-11.378-25.6-25.6-25.6zM1145.173 419.556h-297.529c-14.222 0-25.6 11.378-25.6 25.6s11.378 25.6 25.6 25.6h297.529c14.222 0 25.6-11.378 25.6-25.6s-11.378-25.6-25.6-25.6zM1145.173 294.4h-190.009c-14.222 0-25.6 11.378-25.6 25.6s11.378 25.6 25.6 25.6h190.009c14.222 0 25.6-11.378 25.6-25.6s-11.378-25.6-25.6-25.6zM1145.173 169.244h-190.009c-14.222 0-25.6 11.378-25.6 25.6s11.378 25.6 25.6 25.6h190.009c14.222 0 25.6-11.378 25.6-25.6s-11.378-25.6-25.6-25.6zM657.067 388.836c-2.276 2.844-3.413 5.12-3.413 8.533v23.893h-50.631v47.218h50.631v23.324c0 3.413 1.138 6.258 3.413 8.533 2.844 2.844 5.12 3.982 8.533 3.982 2.844 0 5.689-1.138 8.533-3.982l47.218-47.218c2.276-2.276 3.413-5.12 3.413-8.533 0-2.844-1.138-5.689-3.413-8.533l-47.218-47.218c-2.844-2.276-5.12-3.413-8.533-3.413-2.844 0-5.689 1.138-8.533 3.413z" />
<glyph unicode="&#xe617;" glyph-name="form-rating" horiz-adv-x="1365" d="M810.667 480.427l-90.453 13.084-40.391 81.92-40.391-81.92-90.453-13.084 65.422-64.284-15.36-90.453 80.782 42.667 80.782-42.667-15.36 90.453 65.422 64.284zM502.898 480.427l-90.453 13.084-40.391 81.92-40.96-81.92-90.453-13.084 65.422-63.716-15.36-90.453 80.782 42.667 80.782-42.667-15.36 90.453 65.991 63.716zM1119.004 480.427l-90.453 13.084-40.391 81.92-40.96-81.92-90.453-13.084 65.422-63.716-15.36-90.453 80.782 42.667 80.782-42.667-15.36 90.453 65.991 63.716zM987.591 388.836v0 146.204l28.444-58.027 63.716-9.102-46.080-44.942 10.809-63.716-56.889 29.582z" />
<glyph unicode="&#xe618;" glyph-name="form-color-picker" horiz-adv-x="1365" d="M932.978 384.853l-62.578 62.578c-35.84 35.84 26.738 44.373 97.849 116.053 8.533 8.533 13.653 15.929 17.067 22.187 21.049 38.116 15.929 87.609-17.067 120.036s-81.92 38.116-120.036 17.067c-6.258-2.844-14.222-8.533-22.187-17.067-71.111-71.111-80.213-133.689-116.053-97.849l-62.578 62.578-71.111-71.111 71.111-71.68-276.48-276.48c-5.12-5.12-5.12-13.084 0-17.636l17.636-17.636c5.12-5.12 5.12-13.084 0-17.636l-17.636-17.636c-5.12-5.12-5.12-13.084 0-17.636l53.476-53.476c5.12-5.12 13.084-5.12 17.636 0l17.636 17.636c5.12 5.12 13.084 5.12 17.636 0l17.636-17.636c5.12-5.12 13.084-5.12 17.636 0l276.48 276.48 71.111-71.111 72.818 69.973zM504.036 169.813c-21.049 13.653-48.356 13.653-69.404 0l-1.707 1.707c13.653 21.049 13.653 48.356 0 69.404l250.311 250.311 71.111-71.111-250.311-250.311z" />
<glyph unicode="&#xe619;" glyph-name="direct-named" horiz-adv-x="1365" d="M1004.089 577.707c1.138 7.396 0 15.929-2.276 25.031s-5.12 18.204-8.533 27.307c-3.413 9.102-7.964 17.636-13.084 25.031s-10.24 14.222-15.36 19.911l-105.244 103.538c-4.551 5.689-11.378 10.809-19.342 15.929-7.964 4.551-16.498 9.102-25.031 13.084s-17.636 6.827-27.307 8.533c-9.671 1.707-17.636 2.844-24.462 2.844h-347.022c-6.827 0-13.653-1.707-21.618-4.551s-13.653-6.827-18.773-11.947c-4.551-5.12-9.102-11.378-11.947-18.773-3.413-7.396-4.551-14.791-3.413-22.187l-1.707-621.796c1.138-7.964 2.844-15.36 5.12-22.187 2.276-7.396 6.258-13.653 11.947-18.773s11.947-9.102 18.773-11.947c6.827-2.844 14.222-4.551 22.756-4.551h527.929c8.533 0 16.498 1.707 22.756 4.551 6.827 2.844 13.084 6.827 18.773 11.947s9.671 11.378 11.947 18.773c2.276 7.396 3.982 14.791 5.12 22.187v438.044zM821.476 752.924c0-1.138 0.569-1.707 1.707-2.276s1.707-1.138 2.276-1.138c0.569-0.569 1.138-1.138 2.276-1.707s1.707-1.138 1.707-2.276l103.538-102.4h-1.707c1.707-1.138 2.844-1.707 2.844-2.276s0.569-1.138 1.707-2.276c1.138-1.138 1.707-1.707 1.707-2.276s1.138-1.138 2.844-2.276h-119.467l0.569 118.898zM958.009 135.111c-1.138-1.707-1.707-2.844-2.276-3.413-0.569-1.138-1.707-1.707-3.413-2.276s-3.413-0.569-4.551-0.569h-530.773c-1.138 0-2.276 0-4.551 0.569s-2.844 1.138-3.413 2.276c-0.569 1.138-1.138 2.276-2.276 3.413-1.138 1.707-1.138 2.844 0 5.12l-1.138 621.227c1.138 1.707 1.138 3.413 1.138 5.12s0.569 2.844 2.276 3.413c1.707 1.138 2.844 1.707 3.413 2.276 1.138 0.569 2.844 0.569 5.689 0.569h344.178c1.707 0 2.844 0 3.413 0s1.707 0 2.844 0c1.707 0 2.276 0 2.844-0.569s1.707-0.569 3.413-0.569l-1.707-182.613h184.32c-1.138-1.138-1.138-1.707 0-2.844s1.138-1.707 0.569-2.844c-0.569-1.138-0.569-1.707 0-2.844s0-1.707-0.569-2.844l1.707-437.476h-1.707c1.707-2.276 1.707-3.982 0.569-5.12zM740.693 556.089l-12.516-32.996c39.822-14.791 68.267-53.476 68.267-98.987 0-29.013-11.947-55.751-30.72-74.524l-39.253 39.253v-105.244h105.244l-40.96 40.96c25.6 25.6 40.96 60.871 40.96 99.556 0 60.871-37.547 112.071-91.022 131.982zM591.644 523.662c-25.6-25.6-40.96-60.871-40.96-99.556 0-60.302 38.116-111.502 91.022-131.982l12.516 32.996c-39.822 14.791-68.267 53.476-68.267 98.987 0 29.013 11.947 55.751 30.72 74.524l39.253-39.253v105.813h-105.244l40.96-41.529z" />
<glyph unicode="&#xe61a;" glyph-name="direct-tree" horiz-adv-x="1365" d="M1219.698 389.973h-458.524c-18.773 0-34.133-15.36-34.133-34.133s15.36-34.133 34.133-34.133h458.524c18.773 0 34.133 15.36 34.133 34.133 0.569 18.773-14.791 34.133-34.133 34.133zM1219.698 240.924h-458.524c-18.773 0-34.133-15.36-34.133-34.133s15.36-34.133 34.133-34.133h458.524c18.773 0 34.133 15.36 34.133 34.133s-14.791 34.133-34.133 34.133zM142.222 539.022c-18.773 0-34.133-15.36-34.133-34.133s15.36-34.133 34.133-34.133h183.182l5.12 7.396 42.667 60.871h-230.969zM1254.4 504.889c0 18.773-15.36 34.133-34.133 34.133h-496.64l-15.36-22.187-32.427-46.649h544.996c18.204 0 33.564 15.36 33.564 34.702zM656.498 864.427l-226.987-325.404-48.356-68.836-13.084-18.773h128l-114.916-320.853 288.995 412.444h-128z" />
<glyph unicode="&#xe61b;" glyph-name="direct-generic" horiz-adv-x="1365" d="M464.213 668.16c-46.649-46.649-78.507-108.658-87.040-177.493h-116.622v122.88l-162.702-162.702 162.702-162.702v123.449h116.622c14.791-114.347 92.16-208.782 196.267-248.036l26.738 71.68c-87.040 32.996-149.618 117.191-149.618 215.609 0 63.716 25.6 121.173 67.698 162.702l86.471-85.902v230.4h-230.4l89.884-89.884zM1261.796 450.844l-162.702 162.702v-123.449h-113.209c-14.791 114.347-92.16 208.782-196.267 248.036l-27.307-71.68c87.040-32.996 149.618-117.191 149.618-215.609 0-63.716-25.6-121.173-67.698-162.702l-85.902 85.902v-230.4h230.4l-89.884 89.884c46.649 46.649 78.507 108.658 87.040 177.493h113.209v-123.449l162.702 163.271z" />
<glyph unicode="&#xe61c;" glyph-name="bar-stacked-100-3d" horiz-adv-x="1365" d="M527.36 601.031v0l213.902-1.707v0.569l252.587 1.707 55.182 81.92-2.844 142.222-434.631-3.413 0.569 0.569-234.382-0.569-65.422-78.507 3.413-141.653 211.627-1.138zM717.938 622.649l-167.253 1.138v95.004l167.253-0.569v-95.573zM792.462 796.729l203.662 1.707-19.342-27.876-207.644-1.707 23.324 27.876zM594.489 797.867l163.84 1.138-30.151-34.133h-163.271l29.582 32.996zM388.551 797.867l170.667 0.569-28.444-31.858-167.822 0.569 25.6 30.72zM907.378 561.778v0h-30.151l-229.262-0.569 0.569 0.569h-270.791l-66.56-77.369 2.276-141.653 523.947-4.551 154.738-0.569 55.751 81.92-2.276 142.222h-138.24zM387.982 537.884h206.507l-29.013-31.858-204.231 1.138 26.738 30.72zM814.080 361.529l-228.124 2.276 0.569 95.004 228.124-1.138-0.569-96.142zM825.458 504.32l-224.711 0.569 29.582 32.427 225.28 0.569-30.151-33.564zM865.28 507.733l23.893 27.876h105.813l-19.342-27.876h-110.364zM935.253 294.4v0l-221.298 1.138 0.569 0.569-337.351 3.413-66.56-76.231 1.138-141.653 567.182-10.24 110.364-0.569 56.32 81.351-1.138 142.222h-109.227zM387.413 275.627l273.636-2.844-29.013-31.289-270.791 3.982 26.169 30.151zM869.831 94.72l-219.591 3.982 1.138 95.004 220.16-2.844-1.707-96.142zM882.916 236.942l-216.178 2.844 29.582 32.427 216.747-1.138-30.151-34.133zM923.307 240.356l23.893 27.307h46.649l-19.342-27.876-51.2 0.569z" />
<glyph unicode="&#xe61d;" glyph-name="bar-stacked-3d" horiz-adv-x="1365" d="M581.404 829.156v0l-223.004 3.982-55.182-76.231 1.138-142.222 434.062-11.947 37.547 81.351 2.276 142.791-196.836 2.276zM344.747 776.818l25.031 34.702 169.529-2.844-27.307-35.271-167.253 3.413zM717.369 624.356l-186.596 5.12 1.138 99.556 186.596-3.982-1.138-100.693zM727.040 767.716l-186.027 3.982 27.876 36.409 175.787-2.276-17.636-38.116zM649.671 562.916v0l-277.049 6.827-67.129-76.231 3.413-142.222 539.307-17.067 45.511 81.351 0.569 142.791-244.622 4.551zM383.431 545.28l212.764-4.551-29.013-30.72-209.92 5.689 26.169 29.582zM824.889 358.684l-237.796 7.396v94.436l237.796-6.258v-95.573zM835.129 502.044l-233.244 6.258 29.582 31.289 222.436-3.982-18.773-33.564zM1060.409 284.729v0l-667.876 19.342-84.196-75.093v-143.929l697.458-23.893 56.889 80.782-2.276 142.791zM376.604 253.44l26.169 22.756 273.067-7.964-29.013-23.893-270.222 9.102zM667.307 100.409l-1.707 88.747 311.182-10.24 1.707-89.316-311.182 10.809zM690.062 242.062l30.151 25.031 288.996-7.396-19.342-26.738-299.804 9.102z" />
<glyph unicode="&#xe61e;" glyph-name="bar-basic-3d" horiz-adv-x="1365" d="M1059.84 287.004l-718.507 9.102-42.667-79.644 11.947-142.791 727.609-12.516 28.444 83.058-6.827 142.791zM353.849 274.489l675.271-8.533-13.653-38.116-681.529 9.671 19.911 36.978zM867.556 333.084l30.151 83.058-7.964 142.791-548.409 6.827-40.96-79.644 11.378-143.36 555.804-9.671zM354.987 543.573l504.604-6.258-14.222-38.116-509.724 7.396 19.342 36.978zM714.524 604.444l31.858 82.489-7.964 142.222-394.809 5.689-39.822-79.644 10.809-143.36 399.929-7.396zM356.693 813.227l349.867-4.551-15.36-38.116-353.28 5.12 18.773 37.547z" />
<glyph unicode="&#xe61f;" glyph-name="draw-composite" horiz-adv-x="1365" d="M916.48 159.004l-125.724 73.387v-47.218h-318.009l196.267 510.293 40.391-15.929-22.187 143.929-113.778-91.591 40.96-15.36-226.418-589.938h402.773v-40.391zM629.191 284.16l71.111-66.56 22.187 94.436-27.876-8.533c-10.24 21.618-22.756 41.529-38.116 59.733l19.911 21.618-95.004 20.48 29.582-92.729 18.773 21.049c10.24-13.084 19.342-27.307 26.738-42.098l-27.307-7.396z" />
<glyph unicode="&#xe620;" glyph-name="intersections" horiz-adv-x="1365" d="M1019.449 276.764c0 2.844-0.569 6.258-1.138 9.102 60.302 35.84 101.262 101.831 101.262 177.493 0 113.778-92.729 205.938-205.938 205.938-41.529 0-80.782-12.516-113.209-34.133-7.964 2.844-15.929 4.551-25.031 4.551-7.396 0-14.222-1.138-21.049-3.413l-112.071 194.56-69.973-120.604c-3.413 0.569-7.396 1.138-10.809 1.138-34.133 0-63.147-22.756-73.387-53.476h-303.218v-400.498h88.178c3.413-12.516 9.671-24.462 18.773-33.564l-69.404-120.036h839.68l-67.698 116.622c15.36 14.222 25.031 34.133 25.031 56.32zM754.916 463.36c0 8.533 0.569 16.498 2.276 24.462 5.689-1.707 11.947-2.276 18.204-2.276 3.413 0 7.396 0.569 10.809 1.138l94.436-163.271c-2.844-3.982-5.689-8.533-7.964-13.084-67.698 18.204-117.76 79.644-117.76 153.031zM1072.356 463.36c0-56.32-29.582-105.813-73.956-133.689-14.222 15.36-34.133 25.031-56.32 25.031-7.964 0-15.36-1.707-22.756-3.982l-90.453 156.444c14.791 14.222 23.893 33.564 23.893 55.751 0 15.36-4.551 29.582-12.516 41.529 21.618 11.378 46.649 18.204 72.818 18.204 88.178-0.569 159.289-72.249 159.289-159.289zM419.271 304.64c-3.413 7.964-7.964 15.36-13.084 22.187l131.413 228.124v-249.742h-118.329zM232.107 610.133h256c2.844-8.533 7.396-16.498 12.516-23.893l-135.396-234.382c-5.689 1.707-11.947 2.276-18.204 2.276-32.996 0-60.871-20.48-72.249-49.493h-43.236v305.493zM979.627 151.040h-674.702l29.013 50.062c4.551-0.569 9.102-1.138 13.653-1.138 35.84 0 65.422 24.462 74.524 57.458h163.271v303.218c30.72 10.24 53.476 38.684 53.476 73.387 0 21.618-9.102 41.529-23.324 55.182l26.738 46.649 72.818-125.724c-10.24-13.084-16.498-29.582-16.498-47.218s6.258-33.564 15.929-46.649c-4.551-16.498-6.827-34.133-6.827-52.338 0-97.28 67.698-179.2 158.72-200.249 6.827-35.84 38.116-63.147 75.662-63.147 2.844 0 6.258 0.569 9.102 1.138l28.444-50.631z" />
<glyph unicode="&#xe621;" glyph-name="hit-test" horiz-adv-x="1365" d="M1173.618 462.791c0 139.947-113.778 253.724-253.724 253.724-64.853 0-123.449-24.462-168.391-64.284l-102.969 178.062-99.556-172.942h-357.262v-400.498h126.293l-88.747-153.031h839.111l-68.836 118.898c101.262 32.996 174.080 128 174.080 240.071zM238.933 304.64v304.924h282.169l-176.356-305.493h-105.813zM544.427 554.382v-249.742h-144.498l144.498 249.742zM985.884 151.040h-674.133l60.871 105.813h219.022v380.018l56.889 98.418 69.404-119.467c-32.427-42.667-51.2-95.004-51.2-152.462 0-139.947 113.778-253.724 253.724-253.724 10.809 0 21.049 0.569 31.289 2.276l34.133-60.871zM809.529 456.533l49.493-85.902c-27.876 18.204-47.218 49.493-49.493 85.902zM924.444 352.427l-97.849 170.098c19.911 30.72 54.044 51.769 93.298 51.769 61.44 0 110.933-50.062 110.933-110.933 0-59.733-47.218-108.658-106.382-110.933z" />
<glyph unicode="&#xe622;" glyph-name="bar-charts-3d" horiz-adv-x="1365" d="M813.511 622.649l54.044 95.573-1.707 159.289-493.796 5.689-54.044-95.573 1.707-159.289 493.796-5.689zM356.124 810.951l27.876 49.493 443.733-5.12-27.876-49.493-443.733 5.12zM319.716 322.844l583.68-6.827 54.044 95.573-1.707 159.289-583.68 7.396-54.044-96.142 1.707-159.289zM889.742 498.631l-533.618 6.258 27.876 49.493 533.618-6.258-27.876-49.493zM1045.618 267.093v0l-673.564 7.964-54.044-95.573 1.707-159.289 673.564-7.964 54.044 95.573-1.707 159.289zM979.627 194.844l-622.933 7.396 27.876 49.493 622.933-7.396-27.876-49.493z" />
<glyph unicode="&#xe623;" glyph-name="column-charts-3d" horiz-adv-x="1365" d="M472.178 632.32l-176.924 25.031-105.813-46.080 6.827-548.409 176.924-25.031 105.813 46.080-6.827 548.409zM398.222 77.084l-5.689 492.658 54.613 23.893 5.689-492.658-54.613-23.893zM629.76 758.613l-105.813-46.080 7.964-647.964 176.356-25.031 105.813 46.080-7.964 647.964-176.356 25.031zM733.867 78.791l-7.396 592.213 54.613 23.893 7.396-592.213-54.613-23.893zM1175.893 87.324l-9.102 747.52-176.924 25.031-105.813-46.080 9.102-747.52 176.924-25.031 105.813 46.080zM1141.76 796.16l8.533-691.769-54.613-23.893-9.102 691.769 55.182 23.893z" />
<glyph unicode="&#xe624;" glyph-name="framing-buttons" horiz-adv-x="1365" d="M806.684 325.689h176.356v-85.333h-176.356v85.333zM573.44 325.689h193.422v-85.333h-193.422v85.333zM362.951 325.689h176.356v-85.333h-176.356v85.333zM266.24 743.822v-595.627l798.151-1.138v596.764h-798.151zM296.96 569.742v143.36h158.151v-143.36h-158.151zM296.96 395.093v143.929h158.151v-143.36h-158.151zM488.107 569.742v143.36h158.151v-143.36h-158.151zM488.107 395.093v143.929h158.151v-143.36h-158.151zM679.822 569.742v143.36h158.151v-143.36h-158.151zM679.822 395.093v143.929h158.151v-143.36h-158.151zM870.969 569.742v143.36h158.151v-143.36h-158.151zM870.969 395.093v143.929h158.151v-143.36h-158.151zM296.96 181.76v182.044h730.453v-182.044h-730.453z" />
<glyph unicode="&#xe625;" glyph-name="row-numberer" horiz-adv-x="1365" d="M352.142 760.889v-625.778h626.347v625.778h-626.347zM386.844 564.053v162.133h162.133v-162.133h-162.133zM386.844 366.649v162.702h162.133v-162.133h-162.133zM386.844 169.813v162.133h162.133v-162.133h-162.133zM584.249 564.053v162.133h162.133v-162.133h-162.133zM584.249 366.649v162.702h162.133v-162.133h-162.133zM584.249 169.813v162.133h162.133v-162.133h-162.133zM781.084 564.053v162.133h162.133v-162.133h-162.133zM781.084 366.649v162.702h162.133v-162.133h-162.133zM781.084 169.813v162.133h162.133v-162.133h-162.133zM438.044 680.107l10.24-19.342 18.204 9.671v-77.369h23.324v104.676h-21.049zM486.4 432.64c14.791 17.636 14.791 20.48 14.791 35.84 0 0 0 3.982 0 3.982 0 17.636-10.24 25.6-34.702 25.6-9.102 0-21.049-1.707-30.72-3.982l2.844-19.342c6.827 1.707 18.773 2.844 26.738 2.844 9.102 0 12.516-1.707 12.516-7.396v-2.844c0-10.809-1.707-11.947-17.636-30.151-9.671-10.809-11.947-13.084-23.324-25.031v-19.911h65.422v20.48h-32.996c4.551 5.12 9.102 10.809 17.067 19.911zM488.107 255.716c7.396 4.551 10.809 11.947 10.809 21.618v7.396c0 15.929-7.396 24.462-34.133 24.462-9.671 0-17.636-1.138-26.738-2.844l2.276-18.204c7.964 1.707 15.36 2.276 22.187 2.276 10.24 0 13.084-1.707 13.084-7.964v-6.827c0-6.827-2.844-10.24-13.084-10.24h-18.204v-19.911h21.618c7.964 0 11.947-2.844 11.947-8.533v-7.396c0-6.258-2.844-8.533-14.222-8.533-9.102 0-15.36 0.569-23.324 2.276l-2.276-18.204c8.533-2.844 16.498-3.413 26.738-3.413 29.582 0 36.978 10.24 36.978 26.169v7.964c-1.138 10.24-4.551 15.929-13.653 19.911z" />
<glyph unicode="&#xe626;" glyph-name="expander-lockable" horiz-adv-x="1365" d="M278.756 762.596v-335.644h125.724v-299.804h521.671v299.804h160.427v335.644h-807.822zM1069.511 444.018h-773.689v301.511h773.689v-301.511zM897.138 291.556v-135.396h-135.396v135.396h135.396zM897.138 320.569h-135.396v106.382h135.396v-106.382zM732.729 291.556v-135.396h-135.396v135.396h135.396zM732.729 320.569h-135.396v106.382h135.396v-106.382zM568.889 291.556v-135.396h-135.396v135.396h135.396zM568.889 320.569h-135.396v106.382h135.396v-106.382zM511.431 624.356v-74.524h-29.582c-4.551 0-7.964-1.138-10.809-3.982-2.844-3.413-4.551-6.827-4.551-10.809 0-4.551 1.707-7.964 5.12-10.809l59.164-59.164c0-0.569 0.569-0.569 0.569-0.569 2.844-2.844 5.689-3.982 9.671-3.982 3.413 0 6.827 1.138 9.671 3.982 0.569 0 0.569 0.569 1.138 0.569l58.596 58.596c2.844 2.844 3.982 6.258 3.982 10.809 0 3.982-1.138 7.396-3.982 10.809-3.413 2.844-6.827 3.982-10.809 3.982h-29.013v82.489h30.151c3.982 0 7.396 1.138 10.809 3.982 1.138 1.707 2.276 2.844 2.844 4.551 0.569 1.138 1.138 2.844 1.138 3.982 0 0.569 0 1.138 0 1.707 0 1.138 0 1.707 0 2.844-0.569 2.844-1.707 5.689-3.982 7.964l-59.164 59.733c-3.413 2.844-6.827 3.982-10.809 3.982-4.551 0-7.964-1.138-10.809-3.982l-59.164-59.733c-2.276-2.276-3.982-5.12-4.551-7.964 0-0.569 0-1.707 0-2.844 0-0.569 0-1.138 0-1.707 0-1.707 0.569-2.844 1.138-3.982 0.569-1.707 1.707-3.413 3.413-4.551 2.844-2.844 6.258-3.982 10.809-3.982h29.582v-7.396zM688.924 463.929c0.569-1.138 1.138-1.707 1.707-2.276s1.707-1.138 2.276-1.707c0.569-0.569 1.138-0.569 1.707-1.138 1.707-0.569 3.413-1.138 5.12-1.138h153.031c1.707 0 3.413 0.569 5.12 1.138 0.569 0.569 1.138 0.569 1.707 1.138 1.138 0.569 1.707 1.138 2.276 1.707s1.138 1.707 1.707 2.276c0.569 0.569 0.569 1.138 1.138 1.707 0.569 1.707 1.138 3.413 1.138 5.12v135.964c0 1.707-0.569 3.413-1.138 5.12s-1.707 2.844-2.844 3.982c-1.138 1.138-2.276 2.276-3.982 2.844-0.569 0-1.138 0.569-1.707 0.569-1.138 0.569-2.276 0.569-3.413 0.569h-4.551v54.044c0 7.396-1.138 14.791-3.982 21.049-2.844 6.827-6.827 12.516-11.378 17.067-5.12 5.12-10.809 8.533-17.067 11.378-6.827 2.844-13.653 3.982-21.049 3.982h-36.409c-7.396 0-14.791-1.138-21.049-3.982-6.827-2.844-12.516-6.827-17.067-11.378-5.12-5.12-8.533-10.809-11.378-17.067-2.844-6.827-3.982-13.653-3.982-21.049v-52.907h-4.551c-1.138 0-2.276 0-3.413-0.569-0.569 0-1.138-0.569-1.707-0.569-1.707-0.569-2.844-1.707-3.982-2.844s-2.276-2.276-2.844-3.982c-0.569-1.707-1.138-3.413-1.138-5.12v-136.533c0-1.707 0.569-3.413 1.138-5.12 0-1.138 0-1.707 0.569-2.276zM764.018 536.178c-0.569 0.569-1.138 1.707-2.276 2.844 0 0-0.569 0.569-0.569 0.569-0.569 1.138-1.138 2.844-1.707 3.982-0.569 1.707-0.569 2.844-0.569 4.551 0 2.844 0.569 5.12 1.138 6.827 0.569 0.569 1.138 1.707 1.138 2.276 0.569 1.138 1.707 2.276 2.844 3.413 1.707 1.707 3.413 2.844 5.689 3.982s4.551 1.138 6.827 1.138 5.12-0.569 6.827-1.138 3.982-2.276 5.689-3.982 2.844-3.413 3.982-5.689c1.138-2.276 1.138-4.551 1.138-6.827 0-1.707 0-2.844-0.569-4.551s-1.138-2.844-1.707-3.982c-0.569-1.138-1.707-2.276-2.276-3.413-1.138-1.138-1.707-1.707-2.844-2.276l7.964-39.253h-36.409l2.844 13.653 5.12 25.6c-0.569 0-1.707 1.138-2.276 2.276zM740.693 640.284v33.564c0 2.844 0.569 5.12 1.138 6.827 1.138 2.276 2.276 3.982 3.982 5.689s3.413 2.844 5.689 3.982c2.276 1.138 4.551 1.138 6.827 1.138h36.409c2.844 0 5.12-0.569 6.827-1.138 2.276-1.138 3.982-2.276 5.689-3.982s2.844-3.413 3.982-5.689c1.138-2.276 1.138-4.551 1.138-6.827v-52.907h-72.249v19.342z" />
<glyph unicode="&#xe627;" glyph-name="checkbox-selection" horiz-adv-x="1365" d="M357.262 773.404v-650.24h650.24v650.24h-650.24zM393.671 568.604v168.391h168.391v-168.391h-168.391zM393.671 363.804v168.391h168.391v-168.391h-168.391zM393.671 159.004v168.391h168.391v-168.391h-168.391zM598.471 568.604v168.391h168.391v-168.391h-168.391zM598.471 363.804v168.391h168.391v-168.391h-168.391zM598.471 159.004v168.391h168.391v-168.391h-168.391zM803.271 568.604v168.391h168.391v-168.391h-168.391zM803.271 363.804v168.391h168.391v-168.391h-168.391zM803.271 159.004v168.391h168.391v-168.391h-168.391zM464.782 644.267l-35.271 35.271-23.324-23.324 58.596-58.596 81.92 81.92-23.324 23.324zM464.782 439.467l-35.271 34.702-23.324-23.324 58.596-58.596 81.92 81.92-23.324 23.324zM464.782 238.080l-35.271 34.702-23.324-23.324 58.596-58.596 81.92 81.92-23.324 23.324z" />
<glyph unicode="&#xe628;" glyph-name="spreadsheet-selmodel-grid" horiz-adv-x="1365" d="M1113.316 635.733v162.702h-864.711v-657.636h162.133v-43.236h747.52v538.169h-44.942zM906.24 221.582v126.293h128v-126.293h-128zM869.831 221.582h-170.667v126.293h170.667v-126.293zM699.164 511.716h170.667v-126.862h-170.667v126.862zM869.831 635.733h-170.667v126.293h170.667v-126.293zM490.951 762.027h170.667v-126.293h-170.667v126.293zM534.756 511.716h126.293v-126.862h-126.293v126.862zM661.618 221.582h-126.862v126.293h126.293v-126.293zM906.24 511.716h128v-126.862h-128v126.862zM1076.907 635.733h-170.667v126.293h170.667v-126.293zM410.738 177.209h-125.724v170.667h125.724v-170.667zM410.738 384.284h-125.724v170.667h125.724v-170.667zM455.68 635.733h-44.942v-44.373h-125.724v170.667h170.667v-126.293z" />
<glyph unicode="&#xe629;" glyph-name="custom-template-combo" horiz-adv-x="1365" d="M819.2 95.289h-489.244v699.733h711.111v-290.133h-221.867v-409.6zM358.4 129.422h438.044v403.911h216.178v233.244h-654.222v-637.156zM796.444 777.956h22.756v-261.689h-22.756v261.689zM887.467 675.556l46.649-81.351 47.218 81.351zM398.222 692.622h233.244v-28.444h-233.244v28.444zM665.6 692.622h85.333v-28.444h-85.333v28.444zM398.222 601.6h233.244v-28.444h-233.244v28.444zM665.6 601.6h85.333v-28.444h-85.333v28.444zM398.222 510.578h233.244v-28.444h-233.244v28.444zM665.6 510.578h85.333v-28.444h-85.333v28.444zM398.222 413.867h233.244v-28.444h-233.244v28.444zM665.6 413.867h85.333v-28.444h-85.333v28.444zM398.222 322.844h233.244v-28.444h-233.244v28.444zM665.6 322.844h85.333v-28.444h-85.333v28.444zM398.222 231.822h233.244v-28.444h-233.244v28.444zM665.6 231.822h85.333v-28.444h-85.333v28.444z" />
<glyph unicode="&#xe62a;" glyph-name="remote-loaded-combo" horiz-adv-x="1365" d="M291.271 422.969v-319.716h782.791v319.716h-782.791zM323.129 391.111h479.573v-255.431h-479.573v255.431zM1042.204 135.68h-207.644v255.431h207.644v-255.431zM943.218 205.084l52.338 90.453h-104.107zM772.551 674.418c74.524 0 135.396 18.773 135.396 42.098v33.564c0 23.324-60.302 42.098-135.396 42.098-74.524 0-135.396-18.773-135.396-42.098v-33.564c0.569-23.324 60.871-42.098 135.396-42.098zM772.551 598.187c74.524 0 135.396 18.773 135.396 42.098v33.564c0 4.551-2.276 8.533-6.258 12.516-17.067-17.067-68.836-29.582-129.138-29.582s-111.502 12.516-128.569 29.582c-3.982-3.982-6.258-7.964-6.258-12.516v-33.564c0-23.324 60.302-42.098 134.827-42.098zM772.551 522.524c74.524 0 135.396 18.773 135.396 42.098v33.564c0 4.551-2.276 8.533-6.258 12.516-17.067-17.067-68.836-29.582-129.138-29.582s-111.502 12.516-128.569 29.582c-3.982-3.982-6.258-7.964-6.258-12.516v-33.564c0-23.324 60.302-42.098 134.827-42.098zM519.396 527.076c2.844-2.844 6.258-4.551 10.24-4.551 3.413 0 6.827 1.707 10.24 4.551l56.889 56.889c2.844 2.844 3.982 6.258 3.982 10.24 0 3.413-1.138 6.827-3.982 10.24-2.844 2.844-6.258 3.982-10.24 3.982h-29.013v182.044h-56.889v-182.044h-28.444c-3.982 0-7.396-1.138-10.24-3.982s-4.551-6.258-4.551-10.24c0-3.982 1.707-7.396 4.551-10.24l57.458-56.889z" />
<glyph unicode="&#xe62b;" glyph-name="remote-combo" horiz-adv-x="1365" d="M294.116 437.191v-315.164h771.413v315.164h-771.413zM325.404 405.333h472.747v-252.018h-472.747v252.018zM1034.24 153.316h-204.8v252.018h204.8v-252.018zM936.96 222.151l51.2 88.747h-102.4zM799.289 594.773c73.387 0 133.12 18.773 133.12 41.529v33.564c0 4.551-2.276 8.533-6.258 12.516-17.067-17.067-67.698-29.013-127.431-29.013s-109.796 12.516-126.862 29.013c-3.982-3.982-5.689-7.964-5.689-12.516v-33.564c0-22.756 59.733-41.529 133.12-41.529zM799.289 669.867c73.387 0 133.12 18.773 133.12 41.529v33.564c0 22.756-59.733 41.529-133.12 41.529s-133.12-18.773-133.12-41.529v-33.564c0-22.756 59.733-41.529 133.12-41.529zM799.289 520.249c73.387 0 133.12 18.773 133.12 41.529v33.564c0 4.551-2.276 8.533-6.258 12.516-17.067-17.067-67.698-29.013-127.431-29.013s-109.796 12.516-126.862 29.013c-3.982-3.982-5.689-7.964-5.689-12.516v-33.564c0-23.324 59.733-41.529 133.12-41.529zM442.027 604.444c-3.982 0-7.396-1.138-10.24-3.982s-4.551-6.258-4.551-10.24c0-3.982 1.707-7.396 4.551-10.24l56.32-56.32c2.276-2.844 5.689-4.551 10.24-4.551 3.413 0 6.827 1.707 10.24 4.551l56.32 56.32c2.276 2.844 3.982 5.689 3.982 10.24 0 3.413-1.138 6.827-3.982 10.24-2.844 2.844-6.258 3.982-10.24 3.982h-28.444v97.849h28.444c3.413 0 6.827 1.138 10.24 3.982 2.276 2.844 3.982 6.258 3.982 10.24s-1.138 6.827-3.982 10.24l-56.32 56.32c-2.844 2.844-6.258 3.982-10.24 3.982s-7.396-1.138-10.24-3.982l-56.32-56.32c-2.844-2.844-4.551-6.258-4.551-10.24s1.707-6.827 4.551-10.24c2.276-2.844 5.689-3.982 10.24-3.982h27.876v-97.849h-27.876z" />
<glyph unicode="&#xe62c;" glyph-name="simple-combo" horiz-adv-x="1365" d="M249.742 629.476v-351.573h860.729v351.573h-860.729zM284.444 594.204h526.791v-281.031h-526.791v281.031zM1075.2 313.173h-228.124v281.031h228.124v-281.031zM966.542 389.973l56.889 98.987h-114.347z" />
<glyph unicode="&#xe62d;" glyph-name="combo-boxes" horiz-adv-x="1365" d="M249.742 629.476v-351.573h860.729v351.573h-860.729zM284.444 594.204h526.791v-281.031h-526.791v281.031zM1075.2 313.173h-228.124v281.031h228.124v-281.031zM966.542 389.973l56.889 98.987h-114.347z" />
<glyph unicode="&#xe62e;" glyph-name="area-negative" horiz-adv-x="1365" d="M1011.484 740.978c1.707 2.844 3.413 4.551 3.982 5.689 1.138 1.138 2.276 1.138 3.413 1.138s2.276-1.138 2.844-2.844c0.569-1.707 0.569-3.982 0.569-6.827v-353.849h-667.307c-3.413 0-6.258 0.569-7.964 1.138-1.707 1.138-2.844 2.276-3.413 3.413s-0.569 2.844 0 4.551c0.569 1.707 1.707 3.982 3.413 6.827l159.289 115.484c1.707 1.707 3.982 3.413 6.258 4.551s4.551 2.276 7.396 2.276c2.844 0 5.689 0 7.964-0.569s5.689-2.844 7.964-12.516c2.844-10.809 46.080-245.191 47.787-254.862s5.689-11.947 8.533-12.516c2.844-1.138 5.12-1.138 7.396-0.569s4.551 1.138 6.827 2.844c2.276 1.138 4.551 3.413 6.258 6.258l108.089 163.84c1.707 2.844 3.982 4.551 6.258 6.258 2.276 1.138 4.551 2.276 6.827 2.276s4.551-0.569 7.396-1.138c2.844-1.138 5.12-2.276 6.827-3.982l77.369-71.68c2.844-1.707 5.12-3.413 7.396-3.982 2.276-1.138 4.551-1.138 6.827-1.138s4.551 1.138 6.827 2.844c2.276 1.707 3.982 3.413 4.551 5.689l160.427 391.396z" />
<glyph unicode="&#xe62f;" glyph-name="column-negative-3d" horiz-adv-x="1365" d="M873.813 767.716l-67.698-28.444-1.707-436.907 115.484-1.138 64.853 36.409 3.982 431.218-114.916-1.138zM968.818 348.444l-30.72-17.636 2.844 398.791 31.289 13.653-3.413-394.809zM579.698 302.933l-1.707-166.684 115.484-1.138 64.853 36.409 3.982 161.564-115.484-1.707-67.129-28.444zM742.4 181.191l-30.72-17.067 2.276 128.569 31.289 13.653-2.844-125.156zM369.209 618.667l-1.138-314.027 116.053-1.138 65.422 35.271 2.276 310.613-115.484-1.138-67.129-29.582zM531.911 349.013l-30.72-17.067 1.707 276.48 31.289 14.222-2.276-273.636z" />
<glyph unicode="&#xe630;" glyph-name="bar-negative-3d" horiz-adv-x="1365" d="M595.627 417.28l-4.551 117.191-192.853 3.413-34.702-64.853 7.964-117.76 198.542-5.689 25.6 67.698zM409.031 520.249l156.444-2.844-12.516-30.72-160.427 3.413 16.498 30.151zM1035.378 313.173l-449.422 11.947-34.702-64.853 7.964-117.76 455.111-14.791 25.6 67.698-4.551 117.76zM596.196 307.484l413.582-11.378-12.516-30.72-416.996 11.947 15.929 30.151zM896.569 574.293l27.307 67.129-5.12 116.622-323.698 8.533-33.564-64.853 7.396-117.76 327.68-9.671zM605.867 749.511l286.72-7.964-13.084-30.72-289.564 7.964 15.929 30.72z" />
<glyph unicode="&#xe631;" glyph-name="spreadsheet" horiz-adv-x="1365" d="M212.764 769.422v-632.036h939.804v632.036h-939.804zM513.707 174.933h-263.396v158.151h263.396v-158.151zM513.707 370.631h-263.396v160.996h263.396v-160.996zM513.707 569.173h-263.396v162.702h263.396v-162.702zM814.080 174.933h-262.827v158.151h263.396v-158.151zM814.080 370.631h-262.827v160.996h263.396v-160.996zM814.080 569.173h-262.827v162.702h263.396v-162.702zM1115.022 174.933h-263.396v158.151h263.396v-158.151zM1115.022 370.631h-263.396v160.996h263.396v-160.996zM1115.022 569.173h-263.396v162.702h263.396v-162.702z" />
<glyph unicode="&#xe632;" glyph-name="compact-pivot-grid" horiz-adv-x="1094" d="M177.42 889.091h-61.363v-859.091h859.091v859.091h-797.727zM300.147 91.363v368.182h163.637v-368.182h-163.637zM463.783 705v-61.363h-163.637v61.363h163.637zM913.783 520.909h-163.637v61.363h163.637v-61.363zM688.783 520.909h-163.637v61.363h163.637v-61.363zM463.783 520.909h-163.637v61.363h163.637v-61.363zM525.147 643.637v61.363h163.637v-61.363h-163.637zM525.147 91.363v368.182h163.637v-368.182h-163.637zM750.147 91.363v368.182h163.637v-368.182h-163.637zM913.783 643.637h-163.637v61.363h163.637v-61.363zM913.783 766.363h-675v-675h-61.363v736.363h736.363v-61.363z" />
<glyph unicode="&#xe633;" glyph-name="configurable-pivot-grid" horiz-adv-x="1094" d="M188.965 877.546h-61.363v-859.091h859.091v859.091h-797.727zM311.693 79.818v163.637h163.637v-163.637h-163.637zM475.33 304.818h-163.637v163.637h163.637v-163.637zM536.693 468.454h163.637v-163.637h-163.637v163.637zM536.693 79.818v163.637h163.637v-163.637h-163.637zM761.693 79.818v163.637h163.637v-163.637h-163.637zM925.33 304.818h-163.637v163.637h163.637v-163.637zM925.33 529.818h-675v-450h-61.363v736.363h736.363v-286.363zM309.647 642.318l63.409-36.818v47.046h388.637v-47.046l122.727 73.637-61.363 38.863-61.363 36.818v-40.909h-388.637v40.909l-63.409-36.818-65.454-38.863z" />
<glyph unicode="&#xe634;" glyph-name="drilldown-pivot-grid" horiz-adv-x="1094" d="M188.965 877.546h-61.363v-859.091h859.091v859.091h-797.727zM311.693 79.818v61.363h163.637v-61.363h-163.637zM475.33 693.454v-61.363h-163.637v61.363h163.637zM925.33 202.546h-163.637v368.182h163.637v-368.182zM700.33 202.546h-163.637v368.182h163.637v-368.182zM475.33 202.546h-163.637v368.182h163.637v-368.182zM536.693 632.091v61.363h163.637v-61.363h-163.637zM536.693 79.818v61.363h163.637v-61.363h-163.637zM761.693 79.818v61.363h163.637v-61.363h-163.637zM925.33 632.091h-163.637v61.363h163.637v-61.363zM925.33 754.818h-675v-675h-61.363v736.363h736.363v-61.363z" />
<glyph unicode="&#xe635;" glyph-name="exporter-pivot-grid" d="M650.617 474.116h30.133l-30.133 28.125zM150.393 869.875h-60.268v-843.75h843.75v843.75h-783.482zM431.642 86.393h-160.714v160.715h80.358v-20.089c0-10.044 10.044-20.089 20.089-20.089h60.268v-120.536zM270.929 307.375v160.715h80.358v-160.715h-80.358zM431.642 548.447h-60.268c-10.044 0-20.089 0-20.089-20.089h-80.358v160.714h160.714v-140.625zM652.625 86.393h-160.715v120.536h160.715v-120.536zM702.849 241.080h-241.071v281.25h192.857l48.214-44.197v-237.053zM491.911 548.447v140.625h160.715v-140.625h-160.715zM873.607 86.393h-160.715v120.536h60.268c10.044 0 20.089 10.044 20.089 20.089v20.089h80.358v-160.715zM873.607 307.375h-80.358v160.715h80.358v-160.715zM873.607 528.358h-80.358c0 20.089-10.044 20.089-20.089 20.089h-60.268v140.625h160.715v-160.714zM873.607 749.339h-662.946v-662.946h-60.268v723.214h723.214v-60.268zM634.545 502.242h-152.678v-241.071h200.893v200.893h-48.214v40.178zM636.553 317.42l-18.081-10.044-38.17 54.242-22.099-34.151h34.152v-20.089h-72.321l50.224 72.321-44.197 64.286 16.072 12.054 40.178-58.259 38.17 58.259 16.072-12.054-44.197-64.286 44.197-62.276z" />
<glyph unicode="&#xe636;" glyph-name="chart-pivot-grid" d="M90.125 869.875v-843.75h843.75v843.75h-843.75zM146.375 813.625h731.25v-56.25h-675v-675h-56.25v731.25zM671.375 269.875v-187.501h-18.751v337.5h-168.75v-337.5h-18.751v487.499h-168.75v-487.499h-37.5v618.75h618.75v-618.75h-37.5v187.501h-168.75z" />
<glyph unicode="&#xe637;" glyph-name="pivot-grids" d="M150.393 869.875h-60.268v-843.75h843.75v843.75h-783.482zM270.929 86.393v160.715h160.715v-160.715h-160.715zM431.642 689.071v-160.715h-160.714v160.715h160.714zM873.607 307.375h-160.715v160.715h160.715v-160.715zM652.625 307.375h-160.715v160.715h160.715v-160.715zM431.642 307.375h-160.714v160.715h160.714v-160.715zM491.911 528.358v160.714h160.715v-160.714h-160.715zM491.911 86.393v160.715h160.715v-160.715h-160.715zM712.893 86.393v160.715h160.714v-160.715h-160.714zM873.607 528.358h-160.715v160.714h160.715v-160.714zM873.607 749.339h-662.946v-662.946h-60.268v723.214h723.214v-60.268z" />
<glyph unicode="&#xe638;" glyph-name="remote-pivot-grid" d="M110.235 874.897v-826.53h826.53v826.53h-826.53zM440.847 103.47h-165.307v165.307h91.837v-14.693c0-1.837 12.858-3.674 14.693-3.674h58.775v-146.939zM275.54 323.877v165.307h91.837v-165.307h-91.837zM440.847 562.653h-58.775c-1.837 0-14.693-5.51-14.693-7.347v-11.020h-91.837v165.307h165.307v-146.939zM495.948 360.612h-18.367v73.47h-36.735v11.020c18.368 1.837 22.042 5.51 27.551 7.347 3.674 1.837 12.858 0 14.693 18.367h12.858v-110.204zM661.254 103.47h-165.307v146.939h165.307v-146.939zM606.153 378.98v-18.367h-75.307c0 18.367 1.837 14.693 5.51 22.042s11.020 12.858 20.204 18.368l14.693 7.347c7.347 3.674 11.020 7.347 14.693 9.184 3.674 3.674 5.51 9.184 5.51 14.693 0 7.347-1.837 11.020-5.51 14.693s-9.184 5.51-14.693 5.51c-9.184 0-16.531 0-20.204-7.347-1.837-3.674-3.674-12.858-3.674-12.858h-14.693c0 0 1.837 14.693 5.51 20.204 5.51 11.020 16.531 14.693 31.225 14.693 12.858 0 22.042-3.674 27.551-11.020s9.184-14.693 9.184-23.877c0-9.184-3.674-16.53-9.184-23.877-3.674-3.674-9.184-7.347-20.204-12.858l-11.020-5.51c-5.51-3.674-9.184 0-11.020-3.674-3.674-1.837-7.347-7.347-9.184-7.347h60.612zM495.948 562.653v146.939h165.307v-146.939h-165.307zM683.295 362.449c-7.347-7.347-16.53-9.184-29.388-9.184s-22.042 7.347-29.388 14.693c-5.51 7.347-9.184 11.020-9.184 29.388h14.693c0-18.368 1.837-16.53 3.674-20.204 3.674-5.51 11.020-11.020 20.204-11.020 7.347 0 12.858 1.837 18.367 5.51 3.674 3.674 7.347 9.184 7.347 14.693 0 7.347-1.837 12.858-7.347 16.53s-11.020 3.674-20.204 3.674c-1.837 0-3.674 0-5.51 0s-5.51 0-5.51 0v12.858c0 0 5.51 0 5.51 0 1.837 0 3.674 0 3.674 0 5.51 0 9.184 0 12.858 1.837 5.51 3.674 9.184 7.347 9.184 14.693 0 5.51-1.837 9.184-5.51 12.858s-9.184 3.674-12.858 3.674-16.531-1.837-18.367-7.347c-1.837-3.674-3.674-12.858-3.674-12.858h-14.693c0 18.367 1.837 12.858 5.51 18.367 5.51 11.020 16.53 14.693 29.388 14.693 11.020 0 20.204-3.674 25.714-7.347 5.51-5.51 9.184-12.858 9.184-22.042 0-7.347-1.837-12.858-5.51-16.531-1.837-1.837-5.51-5.51-9.184-5.51 5.51-1.837 11.020-5.51 12.858-9.184 3.674-3.674 5.51-11.020 5.51-16.531 3.674-11.020 0-18.368-7.347-25.714zM881.663 103.47h-165.307v146.939h69.796c1.837 0 3.674 1.837 3.674 3.674v14.693h91.837v-165.307zM881.663 323.877h-91.837v165.307h91.837v-165.307zM881.663 544.286h-91.837v11.020c0 1.837-1.837 7.347-3.674 7.347h-69.796v146.939h165.307v-165.307zM881.663 764.693h-661.225v-661.225h-55.103v716.326h716.326v-55.103z" />
<glyph unicode="&#xe639;" glyph-name="address-book" d="M312 212.8c0 25.6-20.8 48-48 48h-83.2c-25.6 0-48-20.8-48-48 0-25.6 20.8-48 48-48h83.2c27.2 0 48 22.4 48 48zM180.8 641.6h83.2c25.6 0 48 20.8 48 48 0 25.6-20.8 48-48 48h-83.2c-25.6 0-48-20.8-48-48 0-25.6 22.4-48 48-48zM180.8 404.8h83.2c25.6 0 48 20.8 48 48 0 25.6-20.8 48-48 48h-83.2c-25.6 0-48-20.8-48-48s22.4-48 48-48zM872 886.4h-641.6c-12.8 0-24-11.2-24-24v-88h59.2c46.4 0 83.2-36.8 83.2-83.2s-36.8-83.2-83.2-83.2h-59.2v-70.4h59.2c46.4 0 83.2-36.8 83.2-83.2s-36.8-83.2-83.2-83.2h-59.2v-72h59.2c46.4 0 83.2-36.8 83.2-83.2s-36.8-83.2-83.2-83.2h-59.2v-88c0-12.8 11.2-24 24-24h641.6c12.8 0 24 11.2 24 24v817.6c0 12.8-11.2 24-24 24zM830.4 540.8c0-22.4-17.6-40-40-40h-355.2c-22.4 0-40 17.6-40 40v86.4c0 22.4 17.6 40 40 40h353.6c22.4 0 40-17.6 40-40v-86.4z" />
<glyph unicode="&#xe63a;" glyph-name="census" d="M619.2 411.2c43.2 32 70.4 83.2 70.4 140.8 0 97.6-78.4 176-176 176s-176-78.4-176-176c0-57.6 27.2-108.8 70.4-140.8-22.4-4.8-139.2-32-142.4-150.4-3.2-129.6 0-256 0-256h496c0 0 3.2 126.4 0 256-3.2 116.8-120 145.6-142.4 150.4zM324.8 430.4c-22.4 35.2-35.2 76.8-35.2 121.6 0 88 51.2 164.8 126.4 201.6-17.6 67.2-78.4 116.8-152 116.8-86.4 0-156.8-70.4-156.8-156.8 0-51.2 24-97.6 62.4-124.8-19.2-3.2-123.2-28.8-126.4-132.8-3.2-115.2 0-228.8 0-228.8h174.4c0 12.8 0 24 0 36.8 1.6 81.6 51.2 136 107.2 166.4zM984 452.8c-3.2 104-107.2 129.6-126.4 132.8 38.4 28.8 62.4 73.6 62.4 124.8 0 86.4-70.4 156.8-156.8 156.8-72 0-134.4-49.6-152-116.8 75.2-36.8 126.4-112 126.4-201.6 0-43.2-12.8-84.8-35.2-121.6 56-30.4 104-84.8 107.2-169.6v0c0-12.8 0-24 0-36.8h174.4c0 4.8 1.6 116.8 0 232z" />
<glyph unicode="&#xe63b;" glyph-name="geo-congress" d="M963.2 305.6h-134.4v27.2c0 3.2-3.2 6.4-6.4 6.4h-96v139.2c0 3.2-3.2 6.4-6.4 6.4h-25.6v97.6c0 3.2-3.2 6.4-6.4 6.4h-27.2c-3.2 64-46.4 118.4-107.2 136v86.4c0 3.2-3.2 6.4-6.4 6.4h-14.4c0 0 0 0 0 0l-6.4 17.6 6.4 19.2c0 1.6 0 3.2 0 4.8l-6.4 20.8 3.2 4.8c1.6 1.6 1.6 4.8 0 8l-6.4 9.6c-1.6 1.6-3.2 3.2-4.8 3.2s-3.2 0-4.8 0l-9.6-4.8c-3.2-1.6-3.2-4.8-3.2-8l1.6-9.6-12.8-17.6c-1.6-1.6-1.6-4.8-1.6-6.4l9.6-22.4-3.2-17.6c0 0 0 0 0 0h-17.6c-3.2 0-6.4-3.2-6.4-6.4v-86.4c-59.2-17.6-104-72-107.2-136h-27.2c-3.2 0-6.4-3.2-6.4-6.4v-97.6h-25.6c-3.2 0-6.4-3.2-6.4-6.4v-139.2h-96c-3.2 0-6.4-3.2-6.4-6.4v-27.2h-131.2c-3.2 0-4.8-1.6-4.8-4.8v-291.2c0-3.2 1.6-4.8 4.8-4.8h393.6v161.6c0 11.2 9.6 20.8 20.8 20.8h68.8c11.2 0 20.8-9.6 20.8-20.8v-161.6h393.6c3.2 0 4.8 1.6 4.8 4.8v291.2c1.6 1.6 0 3.2-3.2 3.2zM200 73.6c0-9.6-8-17.6-17.6-17.6h-40c-9.6 0-17.6 8-17.6 17.6v161.6c0 9.6 8 17.6 17.6 17.6h40c9.6 0 17.6-8 17.6-17.6v-161.6zM336 73.6c0-9.6-8-17.6-17.6-17.6h-40c-9.6 0-17.6 8-17.6 17.6v161.6c0 9.6 8 17.6 17.6 17.6h40c9.6 0 17.6-8 17.6-17.6v-161.6zM417.6 353.6c0-8-6.4-14.4-14.4-14.4h-36.8c-8 0-14.4 6.4-14.4 14.4v88c0 8 6.4 14.4 14.4 14.4h36.8c8 0 14.4-6.4 14.4-14.4v-88zM441.6 502.4c0-8-6.4-12.8-12.8-12.8h-25.6c-8 0-12.8 6.4-12.8 12.8v54.4c0 8 6.4 12.8 12.8 12.8h25.6c8 0 12.8-6.4 12.8-12.8v-54.4zM488 556.8c0 8 6.4 12.8 12.8 12.8h25.6c8 0 12.8-6.4 12.8-12.8v-54.4c0-8-6.4-12.8-12.8-12.8h-25.6c-8 0-12.8 6.4-12.8 12.8v54.4zM547.2 353.6c0-8-6.4-14.4-14.4-14.4h-36.8c-8 0-14.4 6.4-14.4 14.4v88c0 8 6.4 14.4 14.4 14.4h36.8c8 0 14.4-6.4 14.4-14.4v-88zM587.2 502.4v54.4c0 8 6.4 12.8 12.8 12.8h25.6c8 0 12.8-6.4 12.8-12.8v-54.4c0-8-6.4-12.8-12.8-12.8h-25.6c-6.4-1.6-12.8 4.8-12.8 12.8zM676.8 353.6c0-8-6.4-14.4-14.4-14.4h-36.8c-8 0-14.4 6.4-14.4 14.4v88c0 8 6.4 14.4 14.4 14.4h36.8c8 0 14.4-6.4 14.4-14.4v-88zM771.2 73.6c0-9.6-8-17.6-17.6-17.6h-40c-9.6 0-17.6 8-17.6 17.6v161.6c0 9.6 8 17.6 17.6 17.6h40c9.6 0 17.6-8 17.6-17.6v-161.6zM907.2 73.6c0-9.6-8-17.6-17.6-17.6h-40c-9.6 0-17.6 8-17.6 17.6v161.6c0 9.6 8 17.6 17.6 17.6h40c9.6 0 17.6-8 17.6-17.6v-161.6z" />
<glyph unicode="&#xe63c;" glyph-name="oreilly" d="M840 403.2h-664c-3.2 0-6.4-1.6-6.4-4.8v-62.4c0-1.6 3.2-4.8 6.4-4.8h107.2l107.2-321.6h260.8l91.2 321.6h97.6c3.2 0 6.4 1.6 6.4 4.8v64c0 1.6-3.2 3.2-6.4 3.2zM507.2 472h140.8c0 0 1.6 72 0 147.2-1.6 67.2-68.8 83.2-81.6 84.8 24 17.6 40 48 40 80 0 56-44.8 100.8-100.8 100.8s-100.8-44.8-100.8-100.8c0-33.6 16-62.4 40-80-12.8-1.6-80-19.2-81.6-84.8-1.6-73.6 0-147.2 0-147.2h144zM734.4 625.6c1.6 0 3.2 0 3.2 0l14.4-11.2 27.2-22.4 9.6-8 48-43.2 17.6 17.6-76.8 104c1.6 3.2 1.6 6.4 1.6 11.2 0 25.6-20.8 46.4-46.4 46.4s-46.4-20.8-46.4-46.4c3.2-27.2 22.4-48 48-48zM748.8 472h28.8v89.6l-28.8 24z" />
<glyph unicode="&#xe63d;" glyph-name="stock-chart" d="M627.2 305.6l163.2 316.8 107.2-48-80 225.6-238.4-84.8 105.6-46.4-110.4-214.4-203.2 89.6-190.4-366.4 104-46.4 137.6 265.6zM894.4 704l4.8-12.8h36.8v12.8zM252.8 380.8l12.8 22.4v35.2h17.6l6.4 12.8h-24v240h240v-166.4l12.8-4.8v171.2h36.8l-25.6 12.8h-11.2v164.8h-12.8v-164.8h-240v164.8h-12.8v-164.8h-164.8v-12.8h164.8v-240h-164.8v-12.8h164.8zM771.2 868.8h-12.8v-54.4l12.8 3.2zM88 192v-6.4h64l6.4 11.2h-70.4zM771.2 497.6l-12.8-22.4v-24h-12.8l-4.8-12.8h17.6v-241.6h-240v123.2l-12.8 4.8v-128h-140.8l-6.4-11.2h147.2v-164.8h12.8v164.8h240v-164.8h12.8v164.8h164.8v11.2h-164.8v241.6h164.8v12.8h-164.8zM252.8 20.8h12.8v84.8l-12.8 4.8z" />
<glyph unicode="&#xe63e;" glyph-name="us-energy" d="M660.8 883.2l-436.8-489.6h286.4l-139.2-380.8 428.8 491.2h-288z" />
<glyph unicode="&#xe63f;" glyph-name="tree-list" d="M84.8 644.8v-131.2h108.8v75.2h48v-75.2h108.8v131.2l-129.6 112zM326.4 728v0 56h-33.6v-25.6l-64 57.6-4.8 4.8-3.2-1.6-180.8-145.6 16-19.2 166.4 132.8 153.6-136 16 17.6zM984 686.4v27.2h-182.4v33.6h-123.2c-4.8 0-9.6-4.8-9.6-9.6v-51.2h315.2zM668.8 659.2v-136c0-4.8 4.8-9.6 9.6-9.6h294.4c4.8 0 9.6 4.8 9.6 9.6v136h-313.6zM860.8 356.8h-552c-6.4 0-11.2 4.8-11.2 11.2v12.8c0 6.4 4.8 11.2 11.2 11.2h552c6.4 0 11.2-4.8 11.2-11.2v-12.8c1.6-4.8-4.8-11.2-11.2-11.2zM860.8 246.4h-371.2c-6.4 0-11.2 4.8-11.2 11.2v12.8c0 6.4 4.8 11.2 11.2 11.2h371.2c6.4 0 11.2-4.8 11.2-11.2v-12.8c1.6-6.4-4.8-11.2-11.2-11.2zM860.8 134.4h-371.2c-6.4 0-11.2 4.8-11.2 11.2v12.8c0 6.4 4.8 11.2 11.2 11.2h371.2c6.4 0 11.2-4.8 11.2-11.2v-12.8c1.6-6.4-4.8-11.2-11.2-11.2zM860.8 24h-371.2c-6.4 0-11.2 4.8-11.2 11.2v12.8c0 6.4 4.8 11.2 11.2 11.2h371.2c6.4 0 11.2-4.8 11.2-11.2v-12.8c1.6-6.4-4.8-11.2-11.2-11.2zM172.8 385.6v43.2h-19.2v-43.2h-44.8v-20.8h44.8v-43.2h19.2v43.2h43.2v20.8zM630.4 817.6c-20.8 33.6-57.6 56-100.8 56s-80-22.4-100.8-56l-16 11.2 4.8-59.2 56 16-14.4 14.4c14.4 22.4 41.6 38.4 70.4 38.4s56-16 70.4-38.4v0l-14.4-14.4 56-16 4.8 59.2-16-11.2z" />
<glyph unicode="&#xe642;" glyph-name="outline-pivot-grid" horiz-adv-x="1094" d="M916.42 868.637h-777.273v-838.637h838.637v838.637h-61.363zM323.239 541.363h143.182v-450h-143.182v450zM691.42 541.363v-450h-163.637v450h163.637zM916.42 91.363h-163.637v450h163.637v-450zM916.42 602.727h-593.182v81.818h593.182v-81.818zM916.42 745.909h-654.546v-654.546h-61.363v715.909h715.909v-61.363z" />
<glyph unicode="&#xe643;" glyph-name="rangeeditor-pivot-grid" horiz-adv-x="1094" d="M188.965 877.546h-61.363v-859.091h859.091v859.091h-797.727zM311.693 79.818v163.637h81.818v-20.454c0-10.227 10.227-20.454 20.454-20.454h61.363v-122.727h-163.637zM475.33 693.454v-143.182h-61.363c-10.227 0-20.454-10.227-20.454-20.454h-81.818v163.637h163.637zM925.33 304.818h-81.818v163.637h81.818v-163.637zM393.512 304.818h-81.818v163.637h81.818v-163.637zM536.693 550.273v143.182h163.637v-143.182h-163.637zM536.693 79.818v122.727h163.637v-122.727h-163.637zM761.693 79.818v122.727h61.363c10.227 0 20.454 10.227 20.454 20.454v20.454h81.818v-163.637h-163.637zM925.33 529.818h-81.818c0 10.227-10.227 20.454-20.454 20.454h-61.363v143.182h163.637v-163.637zM925.33 754.818h-675.001v-675.001h-61.363v736.363h736.363v-61.363z" />
<glyph unicode="&#xe6bd;" glyph-name="webdesktop" horiz-adv-x="1184" d="M1059.488 118.016h-413.824v-59.488h178.496v-56.8h-473.344v59.488h178.496v59.488h-416.544v708.64h946.656v-711.36zM231.84 710.368v-473.344h708.64v473.344h-708.64z" />
<glyph unicode="&#xe6bf;" glyph-name="plus" d="M914.432 552.096h-286.368v286.368c0 14.336-11.616 25.952-25.952 25.952h-156.16c-14.336 0-25.952-11.616-25.952-25.952v-286.368h-286.56c-14.336 0-25.952-11.616-25.952-25.952v-156.16c0-14.336 11.616-25.952 25.952-25.952h286.368v-286.368c0-14.336 11.616-25.952 25.952-25.952h156.16c14.336 0 25.952 11.616 25.952 25.952v286.208h286.368c14.336 0 25.952 11.616 25.952 25.952v156.16c0.16 14.496-11.424 26.112-25.76 26.112z" />
<glyph unicode="&#xe6c0;" glyph-name="tree-xml" horiz-adv-x="1184" d="M1031.424 412.352h-665.632c-19.008 0-35.648 16.64-35.648 35.648s16.64 35.648 35.648 35.648h665.632c19.008 0 35.648-16.64 35.648-35.648s-16.64-35.648-35.648-35.648zM1031.424 245.952h-475.456c-19.008 0-35.648 16.64-35.648 35.648s16.64 35.648 35.648 35.648h475.456c19.008 0 35.648-16.64 35.648-35.648s-16.64-35.648-35.648-35.648zM1031.424 79.52h-475.456c-19.008 0-35.648 16.64-35.648 35.648s16.64 35.648 35.648 35.648h475.456c19.008 0 35.648-16.64 35.648-35.648s-16.64-35.648-35.648-35.648zM109.056 350.528l-11.872 33.28 99.84 64.192-99.84 64.192 11.872 33.28 125.984-83.2v-28.512l-125.984-83.2zM249.312 766.56v28.512l68.928 83.2 7.136-33.28-54.688-64.192 54.688-64.192-7.136-35.648-68.928 85.568zM377.696 680.96l-7.136 33.28 54.688 64.192-54.688 64.192 7.136 33.28 68.928-83.2v-28.512l-68.928-83.2zM491.776 685.728v64.192h21.408v-64.192h-21.408zM565.472 685.728v64.192h21.408v-64.192h-21.408zM639.168 685.728v64.192h21.408v-64.192h-21.408zM708.096 766.56v28.512l68.928 83.2 7.136-33.28-54.688-64.192 54.688-64.192-7.136-33.28-68.928 83.2zM841.248 659.584h-14.272l28.512 235.328h14.272l-28.512-235.328zM914.944 680.96l-7.136 33.28 54.688 64.192-54.688 64.192 7.136 33.28 68.928-83.2v-28.512l-68.928-83.2z" />
<glyph unicode="&#xe6c1;" glyph-name="tree-two" horiz-adv-x="1184" d="M1103.556 500.224h-292.523c-12.527 0-20.89 8.363-20.89 20.89s8.363 20.89 20.89 20.89h292.523c12.527 0 20.89-8.363 20.89-20.89s-8.363-20.89-20.89-20.89zM1103.556 374.886h-188.041c-12.527 0-20.89 8.363-20.89 20.89s8.363 20.89 20.89 20.89h188.041c12.527 0 20.89-8.363 20.89-20.89s-8.363-20.89-20.89-20.89zM1103.556 270.404h-188.041c-12.527 0-20.89 8.363-20.89 20.89s8.363 20.89 20.89 20.89h188.041c12.527 0 20.89-8.363 20.89-20.89s-8.363-20.89-20.89-20.89zM658.526 450.082l-8.363 20.89 66.867 41.779-66.867 41.779 8.363 20.89 83.558-54.34v-18.807l-83.558-52.224zM476.766 500.224h-271.599c-12.527 0-20.89 8.363-20.89 20.89s8.363 20.89 20.89 20.89h271.599c12.527 0 20.89-8.363 20.89-20.89s-8.363-20.89-20.89-20.89zM476.766 374.886h-188.041c-12.527 0-20.89 8.363-20.89 20.89s8.363 20.89 20.89 20.89h188.041c12.527 0 20.89-8.363 20.89-20.89s-8.363-20.89-20.89-20.89zM476.766 270.404h-188.041c-12.527 0-20.89 8.363-20.89 20.89s8.363 20.89 20.89 20.89h188.041c12.527 0 20.89-8.363 20.89-20.89s-8.363-20.89-20.89-20.89zM46.345 450.082l-8.363 20.89 66.867 41.779-66.867 41.779 8.363 20.89 83.558-54.34v-18.807l-83.558-52.224z" />
<glyph unicode="&#xe6c2;" glyph-name="tree-reorder" horiz-adv-x="1184" d="M914.88 313.504h-450.528c-15.68 0-29.376 13.696-29.376 29.376s13.696 29.376 29.376 29.376h450.528c15.68 0 29.376-13.696 29.376-29.376s-13.696-29.376-29.376-29.376zM914.88 176.384h-293.824c-15.68 0-29.376 13.696-29.376 29.376s13.696 29.376 29.376 29.376h293.824c15.68 0 29.376-13.696 29.376-29.376s-13.696-29.376-29.376-29.376zM914.88 39.264h-293.824c-15.68 0-29.376 13.696-29.376 29.376s13.696 29.376 29.376 29.376h293.824c15.68 0 29.376-13.696 29.376-29.376s-13.696-29.376-29.376-29.376zM252.832 262.592l-9.792 27.424 82.272 52.896-82.272 52.896 9.792 27.424 103.808-68.544v-23.52l-103.808-68.544zM914.88 803.2h-450.528c-15.68 0-29.376 13.696-29.376 29.376s13.696 29.376 29.376 29.376h450.528c15.68 0 29.376-13.696 29.376-29.376s-13.696-29.376-29.376-29.376zM914.88 666.080h-293.824c-15.68 0-29.376 13.696-29.376 29.376s13.696 29.376 29.376 29.376h293.824c15.68 0 29.376-13.696 29.376-29.376s-13.696-29.376-29.376-29.376zM914.88 528.96h-293.824c-15.68 0-29.376 13.696-29.376 29.376s13.696 29.376 29.376 29.376h293.824c15.68 0 29.376-13.696 29.376-29.376s-13.696-29.376-29.376-29.376zM252.832 752.256l-9.792 27.424 82.272 52.896-82.272 52.896 9.792 27.424 103.808-68.544v-23.52l-103.808-68.544z" />
<glyph unicode="&#xe6c3;" glyph-name="tree-grid" horiz-adv-x="1184" d="M1015.872 554.976h-665.632c-19.008 0-35.648 16.64-35.648 35.648s16.64 35.648 35.648 35.648h665.632c19.008 0 35.648-16.64 35.648-35.648s-16.64-35.648-35.648-35.648zM1015.872 388.576h-475.456c-19.008 0-35.648 16.64-35.648 35.648s16.64 35.648 35.648 35.648h475.456c19.008 0 35.648-16.64 35.648-35.648s-16.64-35.648-35.648-35.648zM1015.872 222.176h-475.456c-19.008 0-35.648 16.64-35.648 35.648s16.64 35.648 35.648 35.648h475.456c19.008 0 35.648-16.64 35.648-35.648s-16.64-35.648-35.648-35.648zM93.504 493.184l-11.872 33.28 99.84 64.192-99.84 64.192 11.872 33.28 125.984-83.2v-28.512l-125.984-83.2z" />
<glyph unicode="&#xe6c4;" glyph-name="toggle-buttons" horiz-adv-x="1312" d="M1292.544 634.624c0 130.72-107.072 237.792-237.792 237.792h-499.2c-130.72 0-237.792-107.072-237.792-237.792 0-16.16 1.792-32.32 4.768-47.552h73.28c-4.48 14.944-6.88 31.104-6.88 47.552 0 92.704 73.568 166.304 166.304 166.304h499.2c92.704 0 166.304-73.568 166.304-166.304s-73.568-166.304-166.304-166.304h-17.632c16.736-21.248 30.496-44.864 40.96-69.984 120.544 11.648 214.752 113.344 214.752 236.288zM1102.336 682.176h-594.304v-95.104h594.304zM935.744 468.032c-39.776 29.92-89.12 47.552-142.080 47.552h-355.008c29.92-29.6 71.2-47.552 116.928-47.552h380.16zM350.112 515.584h-55.936c-130.72 0-237.792-107.072-237.792-237.792s107.072-237.792 237.792-237.792h499.2c130.72 0 237.792 107.072 237.792 237.792 0 43.36-11.648 83.744-32 118.752h-443.552c-87.328 0.288-164.192 48.16-205.472 119.040zM864.832 277.824v-47.552h-618.24v95.104h617.92v-47.552zM555.584 396.864h443.264c-16.16 27.808-37.696 52.032-63.392 71.2h-379.84c-45.76 0-87.040 17.952-116.928 47.552h-88.544c41.28-70.88 118.144-118.752 205.472-118.752z" />
<glyph unicode="&#xe6c5;" glyph-name="theme" horiz-adv-x="1184" d="M988.672 677.792v0c-154.272 111.616-328.256 170.688-531.776 111.616-160.832-45.952-308.544-213.376-318.4-367.648-13.12-183.84 131.296-334.816 384.064-334.816 272.448 0 374.208 134.592 377.504 173.984s-105.056 114.88-36.096 190.4c88.64 95.2 164.128-16.416 213.376-6.56 45.952 13.12 68.928 147.712-88.64 233.056zM325.6 356.096l-108.32 26.272 26.272 108.32 108.32-26.272-26.272-108.32zM368.288 539.904l-78.784 78.784 78.784 78.784 78.784-78.784-78.784-78.784zM512.704 638.4l-13.12 111.616 111.616 13.12 13.12-111.616-111.616-13.12zM673.536 277.312c-42.688 0-75.488 32.832-75.488 75.488s32.832 75.488 75.488 75.488c42.688 0 75.488-32.832 75.488-75.488 0-42.688-36.096-75.488-75.488-75.488zM801.568 635.104l-108.32 19.712 19.712 108.32 108.32-19.712-19.712-108.32z" />
<glyph unicode="&#xe6c6;" glyph-name="tasks" horiz-adv-x="1184" d="M543.424 60.032c7.616-2.528 15.232-7.616 22.816-12.672 5.088-5.088 12.672-10.144 17.76-15.232s10.144-10.144 15.232-15.232c5.088-5.088 7.616-10.144 10.144-12.672l-268.768-2.528c-7.616 0-17.76 2.528-22.816 5.088-7.616 2.528-12.672 7.616-17.76 12.672-5.088 5.088-10.144 12.672-12.672 17.76s-5.088 15.232-5.088 22.816v737.888c0 7.616 2.528 15.232 5.088 22.816 2.528 7.616 7.616 12.672 12.672 17.76 5.088 5.088 10.144 10.144 17.76 12.672s15.232 5.088 22.816 5.088l147.072-2.528v-55.776l-119.168-2.528c-2.528 0-7.616 0-10.144-2.528s-7.616-5.088-10.144-7.616c-2.528-2.528-5.088-5.088-5.088-10.144 0-5.088-2.528-7.616-2.528-10.144v-682.112c0-2.528 0-5.088 2.528-10.144 0-5.088 2.528-7.616 5.088-10.144 2.528-2.528 5.088-5.088 10.144-7.616s7.616-2.528 10.144 0l174.976 5.088zM398.88 742.144c0 2.528 0 5.088 2.528 10.144 2.528 5.088 5.088 7.616 7.616 10.144s5.088 5.088 10.144 7.616c2.528 2.528 7.616 2.528 10.144 2.528l88.736 2.528c0 0 0 0 0 5.088s0 10.144 0 17.76c0 7.616 0 15.232 0 27.904s0 22.816 0 32.96c0 12.672 2.528 25.344 7.616 35.488s10.144 20.288 20.288 27.904c7.616 7.616 17.76 15.232 27.904 20.288s22.816 7.616 32.96 7.616c12.672 0 22.816-5.088 35.488-7.616 10.144-5.056 20.288-10.144 30.432-20.288 7.616-10.144 15.232-20.288 20.288-30.432 5.088-10.144 7.616-22.816 7.616-32.96 0-12.672 0-22.816 0-35.488s0-20.288 0-27.904c0-7.616 0-12.672 0-17.76s0-5.088 0-5.088l88.736-2.528c2.528 0 7.616 0 10.144-2.528s7.616-5.088 10.144-7.616c2.528-2.528 5.088-5.088 7.616-10.144 2.528-5.088 2.528-7.616 2.528-10.144 0-5.088 0-12.672 0-17.76s0-12.672 0-20.288c0-7.616 0-12.672 0-17.76s0-5.088 0-7.616l-415.84 2.528c0 0 0 0 0 5.088s0 10.144 0 17.76c0 5.088 0 12.672 0 20.288-5.088 7.616-5.088 12.672-5.088 20.288v0zM994.784 328.832c-20.288-2.528-45.632-17.76-76.064-43.104s-60.864-53.248-91.296-88.736c-30.432-32.96-60.864-68.48-86.208-103.968-27.904-35.488-48.192-65.92-63.392-91.296-20.288 22.816-40.576 45.632-60.864 68.48-22.816 20.288-43.104 40.576-63.392 55.776-20.288 15.232-40.576 30.432-60.864 43.104s-38.048 20.288-55.776 25.344l157.216 93.824 76.064-147.072c0 0 7.616 17.76 22.816 48.192s35.488 68.448 63.392 111.584c27.904 43.104 60.864 86.208 101.44 129.312s83.68 76.064 131.84 101.44c0-17.76-2.528-35.488-5.088-50.72-2.528-15.232-2.528-32.96-2.528-48.192 0-17.76 0-32.96 2.528-50.72-2.528-17.76 2.528-35.488 10.144-53.248zM604.288 856.256c-2.528 0-7.616 0-10.144 0-2.528-2.528-7.616-2.528-10.144-5.088-2.528-2.528-5.088-7.616-5.088-10.144-2.528-5.088-2.528-7.616-2.528-12.672 0-5.088 0-10.144 2.528-12.672s5.088-5.088 7.616-10.144c2.528-2.528 5.088-5.088 10.144-5.088 2.528 0 7.616-2.528 10.144-2.528s7.616 2.528 10.144 2.528c2.528 0 7.616 2.528 10.144 5.088 2.528 2.528 5.088 5.088 7.616 10.144 0 2.528 2.528 7.616 2.528 12.672 0 2.528 0 7.616-2.528 12.672 0 5.088-2.528 7.616-7.616 10.144-2.528 2.528-7.616 2.528-10.144 5.088s-7.616 0-12.672 0zM873.056 90.464v96.352c5.088 5.088 10.144 10.144 15.232 15.232 5.088 2.528 10.144 7.616 15.232 12.672 5.088 5.088 10.144 10.144 15.232 12.672s10.144 7.616 12.672 12.672v-182.56c0-7.616-2.528-15.232-5.088-22.816s-7.616-12.672-12.672-17.76c-5.088-5.088-12.672-10.144-20.288-12.672s-15.232-5.088-22.816-2.528l-152.128-2.528c2.528 5.088 7.616 10.144 10.144 15.232s7.616 10.144 10.144 15.232c2.528 5.088 7.616 10.144 10.144 15.232s7.616 10.144 10.144 15.232l81.152-2.528c2.528 0 7.616 2.528 10.144 2.528s7.616 2.528 10.144 7.616c2.528 2.528 5.088 7.616 7.616 10.144 2.528 5.088 5.088 7.616 5.088 12.672zM873.056 770.048c0 2.528 0 5.088-2.528 10.144s-5.088 7.616-7.616 10.144c-2.528 2.528-5.088 5.088-10.144 7.616-2.528 2.528-7.616 2.528-10.144 2.528l-119.168 2.528v55.776l147.072 2.528c7.616 0 15.232-2.528 22.816-5.088 7.616-2.528 12.672-7.616 20.288-12.672 5.088-5.088 10.144-12.672 12.672-17.76 2.528-7.616 5.088-15.232 5.088-22.816v-278.912c-7.616-5.088-15.232-10.144-22.816-12.672-7.616-5.088-12.672-10.144-20.288-12.672-5.088-5.088-10.144-7.616-12.672-10.144s-2.528-5.088-2.528-5.088v286.528z" />
<glyph unicode="&#xe6c7;" glyph-name="minus" d="M914.432 343.904c14.336 0 25.952 11.616 25.952 25.952v156.16c0 14.336-11.616 25.952-25.952 25.952h-780.96c-14.336 0-25.952-11.616-25.952-25.952v-156.16c0-14.336 11.616-25.952 25.952-25.952h780.96z" />
<glyph unicode="&#xe6c8;" glyph-name="stacked" horiz-adv-x="1184" d="M391.424 568.8c2.72 0 8.128 0 10.816-2.72s5.408-2.72 8.128-5.408c2.72-2.72 5.408-5.408 5.408-8.128s2.72-8.128 2.72-10.816v-435.456c0-2.72 0-8.128-2.72-10.816s-2.72-5.408-5.408-8.128c-2.72-2.72-5.408-5.408-8.128-5.408s-8.128-2.72-10.816-2.72h-173.088c-2.72 0-8.128 0-10.816 2.72s-8.128 0-8.128 2.72c-2.72 2.72-5.408 5.408-5.408 8.128s-2.72 8.128-2.72 10.816v435.456c0 2.72 0 8.128 2.72 10.816s2.72 5.408 5.408 8.128c2.72 2.72 5.408 5.408 8.128 5.408s8.128 2.72 10.816 2.72h173.088zM391.424 133.344v148.768h-173.088v-148.768h173.088zM678.112 695.936c2.72 0 8.128 0 10.816-2.72s5.408-2.72 8.128-5.408c2.72-2.72 5.408-5.408 5.408-8.128s2.72-8.128 2.72-10.816v-565.28c0-2.72 0-8.128-2.72-10.816s-2.72-5.408-5.408-8.128c-2.72-2.72-5.408-5.408-8.128-5.408s-8.128-2.72-10.816-2.72h-173.088c-2.72 0-8.128 0-10.816 2.72s-5.408 2.72-8.128 5.408c-2.72 2.72-5.408 5.408-5.408 8.128s-2.72 8.128-2.72 10.816v562.592c0 2.72 0 8.128 2.72 10.816s2.72 5.408 5.408 8.128c2.72 2.72 5.408 5.408 8.128 5.408s8.128 2.72 10.816 2.72h173.088zM678.112 133.344v286.688h-173.088v-286.688h173.088zM964.832 879.84c2.72 0 8.128 0 10.816-2.72s5.408-2.72 8.128-5.408c2.72-2.72 5.408-5.408 5.408-8.128s2.72-8.128 2.72-10.816v-746.496c0-2.72 0-8.128-2.72-10.816s-2.72-5.408-5.408-8.128c-2.72-2.72-5.408-5.408-8.128-5.408s-8.128-2.72-10.816-2.72h-173.088c-2.72 0-8.128 0-10.816 2.72s-5.408 2.72-8.128 5.408c-2.72-2.72-5.408 2.72-5.408 5.408s-2.72 8.128-2.72 10.816v746.496c0 2.72 0 8.128 2.72 10.816s2.72 5.408 5.408 8.128c2.72 2.72 5.408 5.408 8.128 5.408s8.128 2.72 10.816 2.72h173.088zM964.832 133.344v343.488h-173.088v-346.208h173.088zM391.424 301.024v189.344h-173.088v-189.344h173.088zM678.112 436.256v192.032h-173.088v-192.032h173.088zM964.832 463.328v224.48h-173.088v-224.48h173.088z" />
<glyph unicode="&#xe6c9;" glyph-name="square" horiz-adv-x="1184" d="M-2.912 960h1024v-1024h-1024v1024z" />
<glyph unicode="&#xe6ca;" glyph-name="soap-grid" horiz-adv-x="1312" d="M554.944 185.536h107.712v-1.984h15.776v1.984h109.664v-1.984h13.792v1.984h109.664v-1.984h15.776v264.448h-388.16v-264.448h15.776v1.984zM801.632 434.208h109.664v-109.664h-109.664v109.664zM801.632 308.992h109.664v-109.664h-109.664v109.664zM678.4 434.208h109.664v-109.664h-109.664v109.664zM678.4 308.992h109.664v-109.664h-109.664v109.664zM554.944 434.208h107.712v-109.664h-107.712v109.664zM554.944 308.992h107.712v-109.664h-107.712v109.664zM562.816 54.176c19.456-3.936 19.456-3.936 19.456-15.776s-3.936-13.792-17.76-13.792c-13.792 0-23.424 1.984-35.232 5.92l-3.936-21.44c9.856-3.936 25.376-7.872 39.2-7.872 37.216 0 45.088 11.84 45.088 37.216 0 9.856 0 16.512-2.464 21.44h-64.8c4.928-1.984 11.584-3.712 20.448-5.664zM576.384 75.872c0 0 0 0 0 0-19.456 3.936-19.456 3.936-19.456 15.776 0 9.856 3.936 11.84 15.776 11.84 9.856 0 19.456-1.984 33.28-3.936l1.984 23.424c-13.792 1.984-27.36 3.936-37.216 3.936-5.92 0-11.104-0.256-15.776-0.992v-50.016h21.44zM529.536 93.376c0-16.992 1.472-25.888 9.856-31.296v58.176c-7.648-5.184-9.856-14.048-9.856-26.848zM576.384 75.872h-21.44v50.016c-6.912-0.992-11.84-2.72-15.776-5.408v-58.176c0.992-0.736 2.208-1.248 3.456-1.984h64.8c-3.456 6.912-11.584 10.848-31.040 15.52zM678.4 126.624v-23.648c9.6-1.472 13.792-6.912 13.792-15.264v-11.84h27.104v13.792c0 16.512-10.336 34.752-40.896 36.96zM691.968 42.592c0-9.856-5.92-15.776-19.456-15.776-13.792 0-19.456 5.92-19.456 15.776v17.76h-27.36v-21.44c0-17.76 11.84-37.216 47.072-37.216s47.072 19.456 47.072 37.216v21.44h-27.36v-17.76zM662.624 101.984v24.384c-27.616-3.2-37.216-20.704-37.216-36.736v-13.792h27.36v11.84c0 6.912 3.2 11.84 9.856 14.304zM691.968 75.872h27.36v-15.776h-27.36v15.776zM672.48 103.232c2.208 0 4.192-0.256 5.92-0.48v23.648c-1.984 0.256-3.936 0.256-5.92 0.256-3.456 0-6.656-0.256-9.856-0.48v-24.384c2.72 0.992 5.92 1.472 9.856 1.472zM625.408 75.872h27.36v-15.776h-27.36v15.776zM795.712 50.496h-27.36l2.72 9.6h-24.384l-17.504-56.672h27.616l5.664 23.424h41.152l5.92-23.424h29.312l-17.248 56.672h-28.352zM751.36 75.872h23.904l6.912 25.376 5.92-21.696v45.344h-21.696zM801.632 75.872h15.040l-15.040 49.056zM801.632 75.872v49.056h-13.568v-45.344l5.184-19.456h28.352l-4.928 15.776zM775.264 75.872h-23.904l-4.672-15.776h24.384zM850.656 60.096v-56.672h27.36v37.216h21.44c29.312 0 41.152 11.84 41.152 35.232v15.776c0 12.832-4.192 22.176-13.792 27.616v-58.912h-76.16zM850.656 124.896v-49.056h27.36v23.424h21.44c5.92 0 9.6-1.472 11.84-4.448v29.088c-3.456 0.48-7.392 0.736-11.84 0.736h-48.8zM911.296 95.104c1.248-1.984 1.984-4.448 1.984-7.392v-11.84c0-9.856-1.984-13.792-13.792-13.792h-21.44v13.792h-27.36v-15.776h76.384v58.912c-4.192 2.464-9.376 3.936-15.776 4.928v-28.832zM731.136 677.184c92.16 0 166.592 23.424 166.592 51.008v43.136c0 5.92-1.984 9.856-7.872 15.776-21.44-21.44-84.288-37.216-158.72-37.216s-137.024 15.776-158.72 35.232c-5.92-5.92-7.872-9.856-7.872-15.776v-41.152c0.256-29.568 74.688-51.008 166.592-51.008zM731.136 773.056c92.16 0 166.592 23.424 166.592 51.008v41.152c0 27.36-74.432 51.008-166.592 51.008s-166.592-23.424-166.592-51.008v-41.152c0.256-29.312 74.688-51.008 166.592-51.008zM731.136 585.024c92.16 0 166.592 23.424 166.592 51.008v41.152c0 5.92-1.984 9.856-7.872 15.776-21.44-19.456-84.288-35.232-158.72-35.232s-137.024 15.776-158.72 35.232c-5.92-5.92-7.872-9.856-7.872-15.776v-41.152c0.256-29.312 74.688-51.008 166.592-51.008zM417.664 624.224c3.936 0 7.872 0 11.84 3.936 1.984 3.936 3.936 5.92 3.936 9.856s0 7.872-3.936 11.84l-70.496 70.496c-3.936 1.984-7.872 3.936-11.84 3.936s-7.872 0-11.84-3.936l-70.496-70.496c-3.936-3.936-5.92-7.872-5.92-11.84 0-3.936 1.984-7.872 5.92-11.84 1.984-1.984 5.92-3.936 11.84-3.936h35.232v-280.192h-35.232c-3.936 0-7.872 0-11.84-3.936s-5.92-7.872-5.92-11.84 1.984-7.872 5.92-11.84l70.496-70.496c1.984-3.936 5.92-5.92 11.84-5.92 3.936 0 7.872 1.984 11.84 5.92l70.496 72.448c1.984 1.984 3.936 5.92 3.936 11.84 0 3.936 0 7.872-3.936 11.84-3.936 1.984-7.872 3.936-11.84 3.936h-35.232v280.192h35.232z" />
<glyph unicode="&#xe6cb;" glyph-name="sliding-pager" horiz-adv-x="1184" d="M831.488 534.304v-16.512h203.84v-135.904h-203.84v-16.512c0-7.36-1.824-14.688-3.68-20.192-3.68-5.504-5.504-11.008-11.008-16.512s-9.184-7.36-16.512-11.008c-5.504-3.68-12.864-3.68-20.192-3.68h-170.784c-7.36 0-14.688 1.824-20.192 3.68-5.504 3.68-11.008 5.504-16.512 11.008s-7.36 9.184-11.008 16.512c-3.68 5.504-3.68 12.864-3.68 20.192v16.512h-460.928v135.904h462.752v16.512c0 7.328 1.824 14.688 3.68 20.192 3.68 5.504 5.504 11.008 11.008 16.512 3.68 3.68 9.184 7.328 16.512 11.008 5.504 3.68 12.864 3.68 20.192 3.68h170.784c7.36 0 14.688-1.824 20.192-3.68 5.504-3.68 11.008-5.504 16.512-11.008 3.68-3.68 7.36-9.184 11.008-16.512 0-7.328 1.824-12.864 1.824-20.192zM625.824 380.064h135.904v135.904h-135.904v-135.904z" />
</font>
</defs>
</svg>
